<svg width="393" height="196" viewBox="0 0 393 196" fill="none" xmlns="http://www.w3.org/2000/svg">
<g clip-path="url(#clip0_197_2958)">
<path d="M0 -88H394V184C394 190.627 388.627 196 382 196H12C5.37258 196 0 190.627 0 184V-88Z" fill="#006AFF"/>
<path opacity="0.2" d="M101.093 -39.4987V-3.39148C101.093 47.3843 57.5415 88.0049 3.10159 88.0049H-53.7578V-4.51982H-1.73743C10.3603 -4.51982 20.0385 -13.5466 20.0385 -24.8302V-64.3224C20.0385 -73.3492 12.7798 -82.376 3.10159 -83.5044C0.682037 -84.6327 -1.73749 -84.6328 -4.15703 -84.6328H-185.623C-191.672 -84.6328 -197.721 -82.376 -202.56 -77.8626C-203.77 -76.7343 -204.98 -75.606 -206.189 -73.3493C-206.189 -72.2209 -207.399 -72.2209 -207.399 -71.0925C-208.609 -68.8358 -208.609 -66.5791 -208.609 -63.1941V-24.8302C-208.609 -23.7018 -208.609 -23.7018 -208.609 -22.5735C-207.399 -12.4183 -198.931 -4.51982 -186.833 -4.51982H-134.813V177.145C-134.813 191.813 -146.91 203.097 -162.638 203.097H-229.175C-244.902 203.097 -257 191.813 -257 177.145V-98.173C-257 -101.558 -257 -104.943 -255.79 -109.456C-249.741 -154.59 -208.609 -189.569 -159.008 -189.569H3.10159C47.8633 -189.569 85.3663 -161.361 97.4641 -122.997C97.4641 -119.612 98.6738 -116.227 98.6738 -112.842L101.093 -65.4508C101.093 -58.6807 101.093 -51.9105 101.093 -44.0121C101.093 -44.0121 101.093 -41.7554 101.093 -39.4987Z" fill="#DAEDED" fill-opacity="0.6"/>
<path opacity="0.2" d="M678.093 139.973V176.08C678.093 226.856 634.541 267.477 580.102 267.477H523.242V174.952H575.263C587.36 174.952 597.038 165.925 597.038 154.642V115.149C597.038 106.122 589.78 97.0957 580.102 95.9673C577.682 94.839 575.263 94.8389 572.843 94.8389H391.377C385.328 94.8389 379.279 97.0957 374.44 101.609C373.23 102.737 372.02 103.866 370.811 106.122C370.811 107.251 369.601 107.251 369.601 108.379C368.391 110.636 368.391 112.893 368.391 116.278V154.642C368.391 155.77 368.391 155.77 368.391 156.898C369.601 167.053 378.069 174.952 390.167 174.952H442.187V356.616C442.187 371.285 430.09 382.568 414.362 382.568H347.825C332.098 382.568 320 371.285 320 356.616V81.2987C320 77.9137 320 74.5286 321.21 70.0152C327.259 24.8812 368.391 -10.0977 417.992 -10.0977H580.102C624.863 -10.0977 662.366 18.1111 674.464 56.4751C674.464 59.8601 675.674 63.2451 675.674 66.6301L678.093 114.021C678.093 120.791 678.093 127.561 678.093 135.46C678.093 135.46 678.093 137.716 678.093 139.973Z" fill="#DAEDED" fill-opacity="0.6"/>
</g>
<path d="M0.5 -87.5H393.5V184C393.5 190.351 388.351 195.5 382 195.5H12C5.64872 195.5 0.5 190.351 0.5 184V-87.5Z" stroke="#B3C6C6" stroke-opacity="0.3"/>
<defs>
<clipPath id="clip0_197_2958">
<path d="M0 -88H394V184C394 190.627 388.627 196 382 196H12C5.37258 196 0 190.627 0 184V-88Z" fill="white"/>
</clipPath>
</defs>
</svg>
