<svg width="144" height="147" viewBox="0 0 144 147" fill="none" xmlns="http://www.w3.org/2000/svg">
<g opacity="0.6">
<path d="M92.0586 19.471C98.4012 21.8341 99.0043 28.0608 104.467 32.3957C109.93 36.7306 116.131 35.9033 119.873 41.5432C123.615 47.1831 120.443 52.5751 122.314 59.293C124.186 66.0109 129.689 68.9864 129.401 75.7488C129.114 82.5112 123.378 85.009 120.943 91.5438C118.509 98.0787 121.212 103.72 117.004 109.022C112.797 114.324 106.689 112.974 100.878 116.83C95.067 120.685 93.9377 126.838 87.4174 128.655C80.8971 130.471 76.7492 125.788 69.7818 125.492C62.8145 125.196 58.2841 129.51 51.9415 127.147C45.5989 124.784 44.9957 118.557 39.5331 114.222C34.0705 109.887 27.8695 110.714 24.1272 105.074C20.3849 99.4345 23.557 94.0425 21.6856 87.3246C19.8143 80.6068 14.3113 77.6312 14.5988 70.8688C14.8862 64.1064 20.6218 61.6086 23.0565 55.0738C25.4912 48.5389 22.7882 42.8972 26.9956 37.5952C31.203 32.2932 37.3114 33.6438 43.1222 29.7881C48.933 25.9324 50.0624 19.7793 56.5826 17.963C63.1029 16.1467 67.2509 20.8297 74.2182 21.1259C81.1856 21.422 85.7159 17.1079 92.0586 19.471Z" fill="#FF6310"/>
</g>
<g opacity="0.6">
<path d="M51.5978 127.017C45.2704 124.614 44.707 118.383 39.2722 114.014C33.8374 109.644 27.6313 110.432 23.9251 104.768C20.2189 99.1043 23.4253 93.7327 21.5969 87.003C19.7685 80.2733 14.2846 77.2627 14.6153 70.5022C14.9459 63.7418 20.6974 61.2807 23.1738 54.7615C25.6502 48.2424 22.9832 42.5835 27.2244 37.3085C31.4656 32.0335 37.5652 33.4231 43.4005 29.6045C49.2358 25.786 50.4045 19.6403 56.9362 17.8656C63.4679 16.091 67.5859 20.8004 74.5512 21.1411C81.5165 21.4818 86.0744 17.1966 92.4018 19.6002C98.7292 22.0037 99.2925 28.2342 104.727 32.6039C110.162 36.9736 116.368 36.186 120.074 41.8496C123.781 47.5133 120.574 52.885 122.403 59.6146C124.231 66.3443 129.715 69.3549 129.384 76.1154C129.054 82.8758 123.302 85.3369 120.826 91.8561C118.349 98.3752 121.016 104.034 116.775 109.309C112.534 114.584 106.434 113.195 100.599 117.013C94.7638 120.832 93.5951 126.977 87.0634 128.752C80.5316 130.527 76.4137 125.817 69.4484 125.477C62.483 125.136 57.9252 129.421 51.5978 127.017Z" fill="#21C013"/>
</g>
<path d="M63.2429 91.9301C62.1947 91.9301 61.1462 91.5299 60.3458 90.7295L50.3068 80.6905C48.7063 79.0913 48.7063 76.4961 50.3068 74.8966C51.9074 73.296 54.5003 73.296 56.1008 74.8966L63.2429 82.039L88.7361 56.5468C90.337 54.9466 92.9295 54.9466 94.53 56.5468C96.1306 58.1474 96.1306 60.7416 94.53 62.3408L66.1397 90.7295C65.3396 91.5299 64.2911 91.9301 63.2429 91.9301Z" fill="white"/>
</svg>
