<svg width="24" height="24" viewBox="0 0 24 24" fill="none" xmlns="http://www.w3.org/2000/svg">
<path d="M8.65781 16.5535L8.65765 16.5519C8.64448 16.4169 8.74312 16.292 8.88742 16.2782L8.88977 16.278C9.01157 16.2658 9.14837 16.3712 9.16229 16.5081C9.31335 18.1411 9.78432 19.3793 10.8052 20.1854C11.8078 20.9771 13.2422 21.2705 15.12 21.2705H15.25C17.3196 21.2705 18.8704 20.9097 19.8848 19.8953C20.8992 18.8809 21.26 17.3301 21.26 15.2605V8.74047C21.26 6.67083 20.8992 5.12004 19.8848 4.10567C18.8704 3.09129 17.3196 2.73047 15.25 2.73047H15.12C13.2318 2.73047 11.7903 3.02891 10.7867 3.8358C9.76815 4.65476 9.30413 5.91081 9.16275 7.56705C9.13991 7.72693 9.01292 7.81467 8.88742 7.80272L8.88743 7.80258L8.87564 7.80174C8.74625 7.7925 8.63893 7.6768 8.64852 7.52927C8.8121 5.62177 9.40024 4.33067 10.4001 3.50315C11.4112 2.66629 12.9301 2.23047 15.11 2.23047H15.24C17.6375 2.23047 19.23 2.74509 20.2327 3.74777C21.2354 4.75045 21.75 6.34299 21.75 8.74047V15.2605C21.75 17.6579 21.2354 19.2505 20.2327 20.2532C19.23 21.2558 17.6375 21.7705 15.24 21.7705H15.11C12.9445 21.7705 11.4341 21.3419 10.4249 20.5181C9.42686 19.7034 8.83515 18.4324 8.65781 16.5535Z" fill="#3D4754" stroke="#576B74"/>
<path d="M15 12.25H3.62C3.48614 12.25 3.37 12.1339 3.37 12C3.37 11.8661 3.48614 11.75 3.62 11.75H15C15.1339 11.75 15.25 11.8661 15.25 12C15.25 12.1339 15.1339 12.25 15 12.25Z" fill="#3D4754" stroke="#576B74"/>
<path d="M3.20645 11.6463L2.8529 11.9998L3.20645 12.3534L6.02645 15.1734C6.12119 15.2681 6.12119 15.4316 6.02645 15.5263L6.02036 15.5324L6.01447 15.5387C5.98423 15.5711 5.92536 15.5998 5.85 15.5998C5.78545 15.5998 5.72485 15.5776 5.67356 15.5263L2.32356 12.1763C2.22882 12.0816 2.22882 11.9181 2.32356 11.8234L5.67356 8.4734C5.76829 8.37866 5.93171 8.37866 6.02645 8.4734C6.12119 8.56813 6.12119 8.73155 6.02645 8.82629L3.20645 11.6463Z" fill="#3D4754" stroke="#576B74"/>
</svg>
