<svg width="46" height="46" viewBox="0 0 46 46" fill="none" xmlns="http://www.w3.org/2000/svg">
<rect x="0.5" y="0.5" width="45" height="45" rx="15" fill="#E4EBEB"/>
<path d="M22.52 13.9102C19.21 13.9102 16.52 16.6002 16.52 19.9102V22.8002C16.52 23.4102 16.26 24.3402 15.95 24.8602L14.8 26.7702C14.09 27.9502 14.58 29.2602 15.88 29.7002C20.19 31.1402 24.84 31.1402 29.15 29.7002C30.36 29.3002 30.89 27.8702 30.23 26.7702L29.08 24.8602C28.78 24.3402 28.52 23.4102 28.52 22.8002V19.9102C28.52 16.6102 25.82 13.9102 22.52 13.9102Z" stroke="#3D4754" stroke-width="1.5" stroke-miterlimit="10" stroke-linecap="round"/>
<path d="M24.37 14.2004C24.06 14.1104 23.74 14.0404 23.41 14.0004C22.45 13.8804 21.53 13.9504 20.67 14.2004C20.96 13.4604 21.68 12.9404 22.52 12.9404C23.36 12.9404 24.08 13.4604 24.37 14.2004Z" stroke="#3D4754" stroke-width="1.5" stroke-miterlimit="10" stroke-linecap="round" stroke-linejoin="round"/>
<path d="M25.52 30.0596C25.52 31.7096 24.17 33.0596 22.52 33.0596C21.7 33.0596 20.94 32.7196 20.4 32.1796C19.86 31.6396 19.52 30.8796 19.52 30.0596" stroke="#3D4754" stroke-width="1.5" stroke-miterlimit="10"/>
</svg>
