<svg width="46" height="45" viewBox="0 0 46 45" fill="none" xmlns="http://www.w3.org/2000/svg">
<rect x="0.5" width="45" height="45" rx="15" fill="#E4EBEB"/>
<path d="M25.5 33.25H19.5C16.8424 33.25 15.0649 32.6803 13.9423 31.5577C12.8197 30.4351 12.25 28.6576 12.25 26V20C12.25 17.3424 12.8197 15.5649 13.9423 14.4423C15.0649 13.3197 16.8424 12.75 19.5 12.75H25.5C28.1576 12.75 29.9351 13.3197 31.0577 14.4423C32.1803 15.5649 32.75 17.3424 32.75 20V26C32.75 28.6576 32.1803 30.4351 31.0577 31.5577C29.9351 32.6803 28.1576 33.25 25.5 33.25ZM19.5 13.25C17.1597 13.25 15.4243 13.6611 14.2927 14.7927C13.1611 15.9243 12.75 17.6597 12.75 20V26C12.75 28.3403 13.1611 30.0757 14.2927 31.2073C15.4243 32.3389 17.1597 32.75 19.5 32.75H25.5C27.8403 32.75 29.5757 32.3389 30.7073 31.2073C31.8389 30.0757 32.25 28.3403 32.25 26V20C32.25 17.6597 31.8389 15.9243 30.7073 14.7927C29.5757 13.6611 27.8403 13.25 25.5 13.25H19.5Z" fill="#3D4754" stroke="#006AFF"/>
<path d="M26.08 29.7496C25.9462 29.7496 25.83 29.6335 25.83 29.4996V25.5996C25.83 25.4658 25.9462 25.3496 26.08 25.3496C26.2139 25.3496 26.33 25.4658 26.33 25.5996V29.4996C26.33 29.6335 26.2139 29.7496 26.08 29.7496Z" fill="#3D4754" stroke="#006AFF"/>
<path d="M26.08 18.7C25.9462 18.7 25.83 18.5839 25.83 18.45V16.5C25.83 16.3661 25.9462 16.25 26.08 16.25C26.2139 16.25 26.33 16.3661 26.33 16.5V18.45C26.33 18.5839 26.2139 18.7 26.08 18.7Z" fill="#3D4754" stroke="#006AFF"/>
<path d="M26.08 23.9002C24.5061 23.9002 23.23 22.6241 23.23 21.0502C23.23 19.4763 24.5061 18.2002 26.08 18.2002C27.6538 18.2002 28.93 19.4763 28.93 21.0502C28.93 22.6231 27.6448 23.9002 26.08 23.9002ZM26.08 18.7002C24.7838 18.7002 23.73 19.7541 23.73 21.0502C23.73 22.3463 24.7838 23.4002 26.08 23.4002C27.3761 23.4002 28.43 22.3463 28.43 21.0502C28.43 19.7523 27.3644 18.7002 26.08 18.7002Z" fill="#3D4754" stroke="#006AFF"/>
<path d="M18.92 30.2498C18.51 30.2498 18.17 29.9098 18.17 29.4998V27.5498C18.17 27.1398 18.51 26.7998 18.92 26.7998C19.33 26.7998 19.67 27.1398 19.67 27.5498V29.4998C19.67 29.9098 19.34 30.2498 18.92 30.2498Z" fill="#3D4754"/>
<path d="M18.92 21.15C18.51 21.15 18.17 20.81 18.17 20.4V16.5C18.17 16.09 18.51 15.75 18.92 15.75C19.33 15.75 19.67 16.09 19.67 16.5V20.4C19.67 20.81 19.34 21.15 18.92 21.15Z" fill="#3D4754"/>
<path d="M18.92 28.2996C17.07 28.2996 15.57 26.7996 15.57 24.9496C15.57 23.0996 17.07 21.5996 18.92 21.5996C20.77 21.5996 22.27 23.0996 22.27 24.9496C22.27 26.7996 20.77 28.2996 18.92 28.2996ZM18.92 23.0996C17.9 23.0996 17.07 23.9296 17.07 24.9496C17.07 25.9696 17.9 26.7996 18.92 26.7996C19.94 26.7996 20.77 25.9696 20.77 24.9496C20.77 23.9296 19.95 23.0996 18.92 23.0996Z" fill="#3D4754"/>
</svg>
