<svg width="139" height="139" viewBox="0 0 139 139" fill="none" xmlns="http://www.w3.org/2000/svg">
<path d="M92.375 138.125H77.125V122.875H92.375V138.125ZM77.125 84.75H61.875V122.875H77.125V84.75ZM138.125 69.5H122.875V100H138.125V69.5ZM122.875 54.25H107.625V69.5H122.875V54.25ZM31.375 69.5H16.125V84.75H31.375V69.5ZM16.125 54.25H0.875V69.5H16.125V54.25ZM69.5 16.125H84.75V0.875H69.5V16.125ZM12.3125 12.3125V35.1875H35.1875V12.3125H12.3125ZM46.625 46.625H0.875V0.875H46.625V46.625ZM12.3125 103.812V126.688H35.1875V103.812H12.3125ZM46.625 138.125H0.875V92.375H46.625V138.125ZM103.812 12.3125V35.1875H126.688V12.3125H103.812ZM138.125 46.625H92.375V0.875H138.125V46.625ZM122.875 122.875V100H92.375V115.25H107.625V138.125H138.125V122.875H122.875ZM107.625 69.5H77.125V84.75H107.625V69.5ZM77.125 54.25H31.375V69.5H46.625V84.75H61.875V69.5H77.125V54.25ZM84.75 46.625V31.375H69.5V16.125H54.25V46.625H84.75ZM29.4688 18.0312H18.0312V29.4688H29.4688V18.0312ZM29.4688 109.531H18.0312V120.969H29.4688V109.531ZM120.969 18.0312H109.531V29.4688H120.969V18.0312Z" fill="#1D4355"/>
</svg>
