<svg width="46" height="45" viewBox="0 0 46 45" fill="none" xmlns="http://www.w3.org/2000/svg">
<rect x="0.5" width="45" height="45" rx="15" fill="#E4EBEB"/>
<path d="M21.9354 33.1715L21.9355 33.1713L21.9227 33.1678C16.9426 31.7956 13.3398 27.1376 13.3398 22.1098V17.7198C13.3398 16.8032 14.0268 15.7755 14.8801 15.4222C14.8804 15.4221 14.8806 15.422 14.8809 15.4219L20.4483 13.1429C20.4485 13.1429 20.4486 13.1428 20.4488 13.1427C21.7783 12.6019 23.2323 12.6025 24.5503 13.1425L24.5504 13.1425L30.1188 15.4219C30.119 15.422 30.1192 15.4221 30.1195 15.4222C30.9729 15.7754 31.6599 16.8031 31.6599 17.7198V22.1098C31.6599 27.1268 28.0478 31.786 23.0759 33.1681L23.0759 33.168L23.0643 33.1715C22.8887 33.2249 22.6988 33.2498 22.4998 33.2498C22.3009 33.2498 22.111 33.2249 21.9354 33.1715ZM20.6412 13.6168L20.6404 13.6171L15.0704 15.8971L15.0704 15.8971L15.0675 15.8983C14.7116 16.0466 14.412 16.3383 14.2051 16.6455C13.9984 16.9525 13.8398 17.3412 13.8398 17.7298V22.1198C13.8398 26.942 17.2964 31.3712 22.0517 32.6904C22.3421 32.7763 22.6576 32.7763 22.948 32.6904C27.7033 31.3712 31.1599 26.942 31.1599 22.1198V17.7298C31.1599 17.3412 31.0013 16.9525 30.7946 16.6455C30.5877 16.3383 30.2881 16.0466 29.9321 15.8982L29.9292 15.8971L24.3593 13.6171L24.3585 13.6168C23.7595 13.3727 23.1355 13.2498 22.4998 13.2498C21.8642 13.2498 21.2402 13.3727 20.6412 13.6168Z" fill="#3D4754" stroke="#006AFF"/>
<path d="M22.5 23.75C21.2561 23.75 20.25 22.7439 20.25 21.5C20.25 20.2561 21.2561 19.25 22.5 19.25C23.7439 19.25 24.75 20.2561 24.75 21.5C24.75 22.7439 23.7439 23.75 22.5 23.75ZM22.5 19.75C21.5339 19.75 20.75 20.5339 20.75 21.5C20.75 22.4661 21.5339 23.25 22.5 23.25C23.4661 23.25 24.25 22.4661 24.25 21.5C24.25 20.5339 23.4661 19.75 22.5 19.75Z" fill="#3D4754" stroke="#006AFF"/>
<path d="M22.5 26.75C22.3661 26.75 22.25 26.6339 22.25 26.5V23.5C22.25 23.3661 22.3661 23.25 22.5 23.25C22.6339 23.25 22.75 23.3661 22.75 23.5V26.5C22.75 26.6339 22.6339 26.75 22.5 26.75Z" fill="#3D4754" stroke="#006AFF"/>
</svg>
