<svg width="20" height="25" viewBox="0 0 20 25" fill="none" xmlns="http://www.w3.org/2000/svg">
<path d="M10.6221 14.0938V4.16667C10.6221 3.0616 10.1745 2.00179 9.37768 1.22039C8.58086 0.438987 7.50016 0 6.3733 0C5.24644 0 4.16573 0.438987 3.36892 1.22039C2.57211 2.00179 2.12447 3.0616 2.12447 4.16667V14.0938C1.45322 14.6772 0.91653 15.3943 0.5502 16.1972C0.183871 17.0001 -0.00367996 17.8704 5.46982e-05 18.75C5.46982e-05 20.4076 0.67152 21.9973 1.86673 23.1694C3.06195 24.3415 4.68301 25 6.3733 25C8.06359 25 9.68465 24.3415 10.8799 23.1694C12.0751 21.9973 12.7465 20.4076 12.7465 18.75C12.7503 17.8704 12.5627 17.0001 12.1964 16.1972C11.8301 15.3943 11.2934 14.6772 10.6221 14.0938ZM6.3733 1.66667C7.04855 1.66941 7.69535 1.93368 8.17284 2.40193C8.65032 2.87018 8.9198 3.50447 8.9226 4.16667V5H3.824V4.16667C3.8268 3.50447 4.09628 2.87018 4.57376 2.40193C5.05124 1.93368 5.69804 1.66941 6.3733 1.66667ZM12.5447 8.09375C12.4644 8.01621 12.4007 7.92378 12.3572 7.82185C12.3136 7.71991 12.2912 7.61051 12.2912 7.5C12.2912 7.38949 12.3136 7.28009 12.3572 7.17815C12.4007 7.07622 12.4644 6.98379 12.5447 6.90625C12.8209 6.63542 13.1488 6.42059 13.5097 6.27403C13.8705 6.12747 14.2573 6.05206 14.6479 6.05208C15.4358 6.05653 16.1907 6.3631 16.7511 6.90625C16.8686 7.02247 17.0084 7.11471 17.1624 7.17766C17.3165 7.24061 17.4817 7.27302 17.6486 7.27302C17.8155 7.27302 17.9808 7.24061 18.1348 7.17766C18.2889 7.11471 18.4287 7.02247 18.5462 6.90625C18.7068 6.75016 18.924 6.66302 19.1501 6.66399C19.3762 6.66497 19.5926 6.75399 19.7518 6.91146C19.911 7.06893 19.9998 7.28196 19.9988 7.50368C19.9978 7.72541 19.9071 7.93766 19.7465 8.09375C19.4703 8.36458 19.1424 8.57941 18.7815 8.72597C18.4207 8.87253 18.0339 8.94794 17.6433 8.94792C16.8554 8.94347 16.1006 8.6369 15.5402 8.09375C15.4226 7.97753 15.2828 7.88529 15.1288 7.82234C14.9747 7.75939 14.8095 7.72698 14.6426 7.72698C14.4757 7.72698 14.3105 7.75939 14.1564 7.82234C14.0023 7.88529 13.8625 7.97753 13.745 8.09375C13.5857 8.24959 13.3699 8.33711 13.1449 8.33711C12.9199 8.33711 12.704 8.24959 12.5447 8.09375ZM19.7465 11.0729C19.8268 11.1505 19.8905 11.2429 19.9341 11.3448C19.9776 11.4468 20 11.5562 20 11.6667C20 11.7772 19.9776 11.8866 19.9341 11.9885C19.8905 12.0904 19.8268 12.1829 19.7465 12.2604C19.4703 12.5312 19.1424 12.7461 18.7815 12.8926C18.4207 13.0392 18.0339 13.1146 17.6433 13.1146C16.8554 13.1101 16.1006 12.8036 15.5402 12.2604C15.4226 12.1442 15.2828 12.052 15.1288 11.989C14.9747 11.9261 14.8095 11.8936 14.6426 11.8936C14.4757 11.8936 14.3105 11.9261 14.1564 11.989C14.0023 12.052 13.8625 12.1442 13.745 12.2604C13.5844 12.4165 13.3672 12.5036 13.1411 12.5027C12.915 12.5017 12.6986 12.4127 12.5394 12.2552C12.3802 12.0977 12.2914 11.8847 12.2924 11.663C12.2934 11.4413 12.3841 11.229 12.5447 11.0729C12.8209 10.8021 13.1488 10.5873 13.5097 10.4407C13.8705 10.2941 14.2573 10.2187 14.6479 10.2188C15.4358 10.2232 16.1907 10.5298 16.7511 11.0729C16.8686 11.1891 17.0084 11.2814 17.1624 11.3443C17.3165 11.4073 17.4817 11.4397 17.6486 11.4397C17.8155 11.4397 17.9808 11.4073 18.1348 11.3443C18.2889 11.2814 18.4287 11.1891 18.5462 11.0729C18.7055 10.9171 18.9213 10.8296 19.1463 10.8296C19.3714 10.8296 19.5872 10.9171 19.7465 11.0729Z" fill="#1D4355"/>
</svg>
