<svg width="20" height="23" viewBox="0 0 20 23" fill="none" xmlns="http://www.w3.org/2000/svg">
<path fill-rule="evenodd" clip-rule="evenodd" d="M10 0C9.01429 0 7.36715 0.380938 5.81715 0.805C4.23143 1.23625 2.63286 1.74656 1.69286 2.05562C1.29985 2.18622 0.951422 2.42573 0.687603 2.74663C0.423783 3.06753 0.255275 3.45681 0.201436 3.86975C-0.649992 10.3054 1.32572 15.0751 3.72286 18.2304C4.73941 19.5801 5.95147 20.7688 7.31857 21.7566C7.87 22.149 8.38143 22.4494 8.81572 22.655C9.21572 22.8447 9.64571 23 10 23C10.3543 23 10.7829 22.8447 11.1843 22.655C11.7078 22.3989 12.2087 22.0984 12.6814 21.7566C14.0486 20.7688 15.2606 19.5802 16.2771 18.2304C18.6743 15.0751 20.65 10.3054 19.7986 3.86975C19.7448 3.45661 19.5764 3.06711 19.3125 2.74596C19.0487 2.42481 18.7003 2.18504 18.3071 2.05419C16.9426 1.60398 15.5674 1.18699 14.1829 0.803563C12.6329 0.382375 10.9857 0 10 0ZM10 7.1875C10.5061 7.18674 10.996 7.36623 11.3832 7.69416C11.7703 8.0221 12.0297 8.47733 12.1152 8.97922C12.2008 9.48111 12.107 9.99727 11.8506 10.4363C11.5942 10.8753 11.1917 11.2088 10.7143 11.3778L11.2643 14.2384C11.2843 14.3425 11.2812 14.4497 11.2552 14.5524C11.2292 14.6551 11.181 14.7507 11.1139 14.8325C11.0469 14.9142 10.9627 14.98 10.8675 15.0252C10.7722 15.0704 10.6682 15.0938 10.5629 15.0938H9.43714C9.33195 15.0936 9.22809 15.07 9.13299 15.0247C9.0379 14.9795 8.95391 14.9136 8.88704 14.8319C8.82016 14.7502 8.77205 14.6546 8.74614 14.552C8.72023 14.4494 8.71716 14.3424 8.73714 14.2384L9.28572 11.3778C8.80834 11.2088 8.40579 10.8753 8.14938 10.4363C7.89297 9.99727 7.79924 9.48111 7.8848 8.97922C7.97035 8.47733 8.22966 8.0221 8.61681 7.69416C9.00395 7.36623 9.49395 7.18674 10 7.1875Z" fill="#1D4355"/>
</svg>
