<svg width="41" height="41" viewBox="0 0 41 41" fill="none" xmlns="http://www.w3.org/2000/svg">
<circle cx="20.5" cy="20.5" r="20" fill="#F5FFFF" stroke="#94A5AB"/>
<path d="M20.02 11.9099C16.71 11.9099 14.02 14.5999 14.02 17.9099V20.7999C14.02 21.4099 13.76 22.3399 13.45 22.8599L12.3 24.7699C11.59 25.9499 12.08 27.2599 13.38 27.6999C17.69 29.1399 22.34 29.1399 26.65 27.6999C27.86 27.2999 28.39 25.8699 27.73 24.7699L26.58 22.8599C26.28 22.3399 26.02 21.4099 26.02 20.7999V17.9099C26.02 14.6099 23.32 11.9099 20.02 11.9099Z" stroke="#576B74" stroke-width="1.5" stroke-miterlimit="10" stroke-linecap="round"/>
<path d="M21.87 12.1999C21.56 12.1099 21.24 12.0399 20.91 11.9999C19.95 11.8799 19.03 11.9499 18.17 12.1999C18.46 11.4599 19.18 10.9399 20.02 10.9399C20.86 10.9399 21.58 11.4599 21.87 12.1999Z" stroke="#576B74" stroke-width="1.5" stroke-miterlimit="10" stroke-linecap="round" stroke-linejoin="round"/>
<path d="M23.02 28.0601C23.02 29.7101 21.67 31.0601 20.02 31.0601C19.2 31.0601 18.44 30.7201 17.9 30.1801C17.36 29.6401 17.02 28.8801 17.02 28.0601" stroke="#576B74" stroke-width="1.5" stroke-miterlimit="10"/>
</svg>
