<svg width="346" height="346" viewBox="0 0 346 346" fill="none" xmlns="http://www.w3.org/2000/svg">
<circle cx="173" cy="173" r="173" fill="#33CCCC" fill-opacity="0.05"/>
<circle cx="172.5" cy="172.5" r="128.5" fill="#33CCCC" fill-opacity="0.1"/>
<path d="M100 173L148.75 222L246 124" stroke="#3CB3B5" stroke-width="20" stroke-linecap="round" stroke-linejoin="round"/>
<path d="M134.97 113.957C135.1 113.199 135.18 112.42 135.23 111.641C135.49 107.419 134.64 102.818 131.17 98.2386C127.66 93.6061 122.66 89.6159 117.97 88.0577C115.35 87.1944 112.65 87.4155 110.47 87.8892C109.47 88.1103 108.6 88.5209 107.8 89.0263C107.87 88.9526 107.94 88.8789 108.02 88.8052C108.16 88.6683 108.31 88.5315 108.46 88.4051C108.51 88.363 108.56 88.3209 108.62 88.2788C113.74 84.1938 123.25 87.1207 129.93 94.7958C129.98 94.859 130.04 94.9116 130.09 94.9748C130.14 95.0274 130.19 95.0906 130.24 95.1433C130.31 95.2275 130.35 95.2696 130.39 95.3222C130.46 95.4065 130.5 95.4591 130.54 95.5012C130.62 95.596 130.66 95.6486 130.7 95.7013C130.85 95.8908 131 96.0698 131.14 96.2593C131.9 97.2595 132.57 98.2596 133.15 99.2704C133.27 99.4809 133.37 99.6599 133.47 99.8494C133.51 99.9231 133.54 99.9758 133.56 100.028C133.61 100.134 133.63 100.165 133.66 100.207C133.71 100.302 133.73 100.344 133.75 100.386C133.8 100.492 133.82 100.534 133.84 100.576C133.9 100.702 133.93 100.755 133.95 100.807C133.96 100.839 133.98 100.871 133.99 100.902C134 100.934 134.02 100.955 134.03 100.986C134.05 101.018 134.06 101.05 134.08 101.081C134.13 101.197 134.15 101.229 134.17 101.271C136.34 105.987 136.66 110.662 134.98 113.968L134.97 113.957Z" fill="#EFA001"/>
<path d="M132.86 116.568C132.91 116.526 132.96 116.484 133.01 116.442C133.85 115.736 134.5 114.884 134.99 113.915C134.99 113.925 134.98 113.936 134.97 113.957C135.1 113.199 135.18 112.42 135.23 111.641C135.28 110.851 135.29 110.041 135.25 109.23C135.25 109.167 135.25 109.093 135.24 109.03C135.19 108.145 135.08 107.251 134.9 106.345C134.89 106.271 134.87 106.208 134.86 106.135C134.65 105.155 134.36 104.166 133.97 103.176C133.94 103.102 133.91 103.039 133.89 102.965C133.83 102.829 133.77 102.681 133.71 102.534C133.68 102.46 133.65 102.386 133.62 102.323C133.43 101.892 133.22 101.47 132.99 101.039C132.49 100.112 131.89 99.1753 131.19 98.2488C131.14 98.1751 131.08 98.1014 131.02 98.0277C129.13 95.5746 126.83 93.3215 124.38 91.5106C123.81 91.0895 123.22 90.6894 122.64 90.321C122.57 90.2788 122.49 90.2262 122.42 90.1841C122.2 90.0472 121.98 89.9209 121.76 89.784C121.61 89.6998 121.46 89.6156 121.32 89.5313C120.96 89.3313 120.6 89.1523 120.24 88.9733C120.15 88.9312 120.07 88.8891 119.98 88.847C119.61 88.6785 119.24 88.5101 118.87 88.3732C118.72 88.31 118.58 88.2574 118.43 88.2048C118.28 88.1521 118.14 88.0995 117.99 88.0468C117.83 87.9942 117.66 87.9416 117.5 87.8994C117.34 87.8573 117.17 87.8152 117.01 87.7731C116.85 87.731 116.68 87.6994 116.52 87.6678C116.36 87.6362 116.19 87.6152 116.03 87.5836C115.87 87.5625 115.7 87.5415 115.54 87.5204C115.41 87.5099 115.28 87.4994 115.15 87.4888C115.04 87.4888 114.92 87.4783 114.81 87.4678C114.73 87.4678 114.65 87.4678 114.57 87.4678C114.25 87.4678 113.93 87.4678 113.61 87.4678C113.15 87.4888 112.69 87.5204 112.25 87.5731C112.24 87.5731 112.22 87.5731 112.21 87.5731C111.62 87.6468 111.04 87.752 110.5 87.8679C110.31 87.91 110.13 87.9521 109.95 88.0047C109.87 88.0258 109.78 88.0574 109.7 88.0889C109.49 88.1626 109.29 88.2363 109.09 88.3206C109.03 88.3416 108.98 88.3732 108.93 88.3943C108.8 88.4574 108.66 88.5206 108.53 88.5943C108.45 88.6364 108.37 88.6785 108.29 88.7206C108.15 88.8049 108.01 88.8891 107.87 88.9733C103.64 93.4058 105.08 102.45 111.41 109.83C118.11 117.653 127.72 120.653 132.89 116.536L132.86 116.568ZM120.15 107.966C120.27 107.966 120.61 107.861 120.72 107.872C122.11 107.882 123.47 107.682 124.13 107.124C124.94 106.45 124.82 105.798 124.37 105.282C124.09 104.966 123.77 104.861 123.4 104.882C122.63 105.092 121.69 105.555 120.58 105.692C119 106.05 117.03 105.892 114.68 103.197C112.64 100.86 111.77 98.0593 113.08 95.9536L110.98 93.5531L112.64 92.1634L113.21 92.0687L115.08 94.2059C115.81 93.8058 116.63 93.5426 117.43 93.4373C118.15 93.2794 118.89 93.2478 119.56 93.3531L122.39 97.5118L121.82 97.6171C121.39 97.5644 120.91 97.575 120.44 97.6381C119.46 97.8487 118.54 98.2593 118 98.712C117.22 99.3648 117.2 99.9123 117.65 100.428C117.96 100.776 118.31 100.881 118.72 100.86C119.48 100.66 120.39 100.239 121.46 100.102C123.06 99.7438 125.06 99.8912 127.46 102.639C129.6 105.082 130.44 107.945 128.94 110.062L131 112.42L129.34 113.81L128.77 113.904L126.86 111.725C126.32 111.967 125.74 112.146 125.13 112.22C124.54 112.357 123.91 112.399 123.26 112.336L120.15 107.977V107.966Z" fill="#F8AF01"/>
<path d="M120.58 105.703C119 106.06 117.03 105.903 114.68 103.207C112.64 100.87 111.77 98.0695 113.08 95.9638L110.98 93.5634L112.64 92.1736L113.21 92.0789L111.55 93.4686L113.65 95.8691C112.34 97.9853 113.21 100.775 115.25 103.113C117.33 105.492 119.11 105.892 120.58 105.703Z" fill="#E28B00"/>
<path d="M121.81 97.6171C121.38 97.5645 120.9 97.575 120.43 97.6382C121.09 97.4908 121.78 97.4381 122.39 97.5118L121.82 97.6171H121.81Z" fill="#E28B00"/>
<path d="M121.45 100.091C120.36 100.333 119.45 100.807 118.71 100.849C119.47 100.649 120.38 100.228 121.45 100.091Z" fill="#E28B00"/>
<path d="M128.77 113.894L126.86 111.715C127.02 111.641 127.17 111.567 127.31 111.483L129.33 113.799L128.76 113.894H128.77Z" fill="#E28B00"/>
<path d="M117.42 93.437C116.61 93.5423 115.8 93.795 115.07 94.2056L115.21 94.3635C115.88 93.9213 116.64 93.6055 117.42 93.437Z" fill="#E28B00"/>
<path d="M123.4 104.892C124.02 104.724 124.54 104.724 124.94 105.187C125.39 105.703 125.51 106.355 124.7 107.029C123.99 107.629 122.2 107.945 120.72 107.871C122.11 107.882 123.47 107.682 124.13 107.124C124.94 106.45 124.82 105.797 124.37 105.282C124.09 104.966 123.77 104.86 123.4 104.881V104.892Z" fill="#E28B00"/>
<path d="M123.26 112.325L120.15 107.966C120.27 107.966 120.61 107.861 120.72 107.872L123.83 112.22C124.27 112.262 124.71 112.262 125.13 112.209C124.54 112.346 123.91 112.388 123.26 112.325Z" fill="#E28B00"/>
<path d="M115.07 94.2061L113.2 92.0688L111.54 93.4586L113.64 95.859C113.6 95.9222 113.56 95.9959 113.52 96.0591C113.5 96.0907 113.48 96.1223 113.47 96.1644C113.12 96.8487 112.99 97.5857 113.03 98.3542C113.03 98.4279 113.03 98.5122 113.05 98.5859C113.06 98.7438 113.09 98.8912 113.12 99.0491C113.12 99.0912 113.13 99.1228 113.14 99.1649C113.16 99.2386 113.17 99.3229 113.19 99.3966C113.19 99.4387 113.21 99.4703 113.22 99.5124C113.54 100.734 114.26 101.976 115.25 103.103C115.7 103.618 116.15 104.05 116.57 104.398C116.94 104.692 117.29 104.934 117.63 105.113C117.74 105.177 117.86 105.229 117.97 105.282C118.36 105.461 118.74 105.577 119.11 105.65C119.21 105.671 119.32 105.682 119.42 105.703C119.47 105.703 119.52 105.714 119.57 105.714C119.92 105.745 120.26 105.735 120.58 105.692C121.69 105.556 122.62 105.092 123.4 104.882C124.02 104.713 124.54 104.713 124.94 105.177C125.39 105.693 125.51 106.345 124.7 107.019C123.99 107.619 122.2 107.935 120.72 107.861L123.83 112.21C124.27 112.252 124.71 112.252 125.13 112.199C125.74 112.125 126.32 111.946 126.86 111.704C127.02 111.63 127.17 111.557 127.31 111.473L129.33 113.789L130.99 112.399L128.93 110.041C130.42 107.925 129.59 105.061 127.45 102.618C125.04 99.8703 123.05 99.7229 121.45 100.081C120.36 100.323 119.45 100.797 118.71 100.839C118.3 100.86 117.94 100.755 117.64 100.407C117.19 99.8914 117.21 99.3439 117.99 98.6912C118.53 98.2384 119.45 97.8278 120.43 97.6173C121.09 97.4699 121.78 97.4172 122.39 97.4909L119.56 93.3322C118.88 93.227 118.15 93.2691 117.43 93.4165C116.65 93.5849 115.89 93.9008 115.22 94.343L115.08 94.185L115.07 94.2061Z" fill="#FFDF38"/>
<path d="M135.46 119.601C135.52 119.548 135.58 119.506 135.64 119.453C138.92 116.705 139.95 112.041 138.94 106.861C138.94 106.882 138.95 106.903 138.96 106.914C138.93 106.745 138.89 106.588 138.85 106.419C138.87 106.493 138.88 106.556 138.89 106.63C138.82 106.272 138.73 105.903 138.64 105.545C138.67 105.682 138.72 105.808 138.75 105.945C138.71 105.777 138.66 105.598 138.62 105.429C138.59 105.324 138.56 105.219 138.53 105.114C138.49 104.977 138.46 104.85 138.42 104.714C138.45 104.808 138.47 104.903 138.49 104.987C138.39 104.64 138.28 104.282 138.16 103.934C138.2 104.05 138.24 104.166 138.28 104.282C138.21 104.061 138.14 103.85 138.07 103.629C138.04 103.545 138.01 103.461 137.98 103.376C137.98 103.355 137.96 103.324 137.95 103.303C137.95 103.313 137.95 103.324 137.96 103.334C137.84 102.987 137.7 102.629 137.55 102.281C137.63 102.482 137.72 102.682 137.79 102.882C137.68 102.597 137.56 102.303 137.44 102.018C137.4 101.934 137.37 101.85 137.33 101.755C137.3 101.692 137.27 101.629 137.25 101.555C137.27 101.597 137.28 101.639 137.3 101.681C137.14 101.313 136.96 100.934 136.78 100.565C136.9 100.808 137.02 101.05 137.13 101.292C136.98 100.944 136.82 100.607 136.65 100.26C136.61 100.186 136.58 100.102 136.54 100.028C136.5 99.9442 136.45 99.86 136.4 99.7652C136.43 99.8178 136.45 99.86 136.48 99.9126C135.34 97.6911 133.87 95.4802 132.07 93.3745C123.94 83.8885 112.27 80.2457 106 85.2361C105.94 85.2888 105.88 85.3309 105.76 85.4362C105.73 85.4677 105.69 85.4888 105.66 85.5204C105.63 85.5414 105.6 85.573 105.57 85.6046C105.55 85.6257 105.53 85.6467 105.51 85.6572C105.48 85.6888 105.44 85.7204 105.38 85.7836C105.26 85.8994 105.14 86.0257 105.02 86.1521C101.82 89.5527 101.33 95.1538 103.33 101.071C104.5 104.556 106.54 108.146 109.38 111.462C117.51 120.948 129.18 124.58 135.45 119.59L135.46 119.601ZM111.39 109.872C104.97 102.376 103.56 93.1745 108.02 88.8157C108.15 88.6789 108.29 88.5525 108.44 88.4367C108.5 88.3841 108.56 88.342 108.62 88.2893C113.74 84.2043 123.25 87.1312 129.93 94.8064C129.98 94.8695 130.04 94.9222 130.09 94.9853C130.14 95.038 130.19 95.1011 130.27 95.1959C130.31 95.238 130.34 95.2801 130.41 95.3644C130.45 95.4065 130.48 95.4591 130.56 95.5433C130.6 95.596 130.64 95.6486 130.69 95.7118C130.84 95.8908 130.98 96.0698 131.13 96.2698C131.88 97.2489 132.55 98.2597 133.14 99.2914C133.25 99.4809 133.35 99.6599 133.47 99.881C133.5 99.9337 133.52 99.9758 133.58 100.081C133.6 100.123 133.62 100.165 133.68 100.271C133.7 100.313 133.72 100.344 133.77 100.45C133.79 100.492 133.81 100.523 133.87 100.639C133.9 100.692 133.92 100.744 134.11 101.134C134.13 101.176 134.15 101.218 134.18 101.281C136.97 107.335 136.7 113.357 133.02 116.442C132.97 116.484 132.92 116.526 132.87 116.568C127.71 120.685 118.09 117.684 111.39 109.862V109.872Z" fill="#FFDF38"/>
<path d="M138.96 106.903C137.78 103.44 135.43 99.1019 132.6 95.796C124.47 86.31 113.02 82.4356 106.75 87.426C106.7 87.4681 106.65 87.5102 106.6 87.5418C103.31 90.3002 102.35 95.9013 103.33 101.071C101.34 95.1538 101.82 89.5527 105.02 86.1521C105.14 86.0257 105.26 85.8994 105.38 85.7836C105.45 85.7204 105.48 85.6888 105.51 85.6572C105.53 85.6362 105.55 85.6151 105.57 85.6046C105.6 85.573 105.63 85.552 105.66 85.5204C105.69 85.4888 105.72 85.4677 105.76 85.4362C105.88 85.3414 105.94 85.2888 106 85.2361C112.27 80.2457 123.94 83.8885 132.07 93.3745C135.78 97.6911 138.1 102.482 138.95 106.893L138.96 106.903Z" fill="#FFD631"/>
<path d="M136.48 118.643L134.33 120.959C134.11 121.191 133.88 121.422 133.63 121.633C133.58 121.675 133.53 121.717 133.49 121.759C133.43 121.812 133.37 121.854 133.31 121.906C133.31 121.906 133.24 121.97 133.21 121.991C132.08 122.875 130.77 123.475 129.34 123.812C129.21 123.844 129.09 123.875 128.96 123.896C127.82 124.128 126.61 124.202 125.35 124.117C125.27 124.117 125.18 124.117 125.09 124.096C124.15 124.023 123.17 123.865 122.18 123.602C122.09 123.58 122 123.559 121.92 123.538C120.95 123.296 119.96 122.959 118.97 122.549C118.89 122.517 118.82 122.486 118.74 122.443C117.99 122.117 117.24 121.759 116.49 121.348C116.42 121.317 116.35 121.275 116.27 121.233C115.46 120.79 114.66 120.296 113.87 119.748C113.81 119.717 113.74 119.674 113.69 119.632C112.8 119.011 111.92 118.337 111.07 117.611C111.01 117.558 110.94 117.506 110.88 117.453C110.08 116.748 109.29 116 108.53 115.2L108.36 115.021C107.98 114.621 107.61 114.21 107.24 113.779C106.87 113.347 106.52 112.915 106.18 112.484C106.12 112.41 106.07 112.336 106.01 112.263C105.38 111.441 104.8 110.61 104.26 109.757C104.22 109.694 104.17 109.609 104.12 109.546C103.6 108.704 103.12 107.841 102.7 106.988C102.67 106.925 102.64 106.872 102.6 106.809C102.18 105.946 101.81 105.093 101.49 104.24C101.46 104.166 101.43 104.093 101.4 104.008C101.32 103.808 101.25 103.598 101.18 103.387C101.18 103.366 101.18 103.366 101.18 103.356C101.02 102.861 100.87 102.387 100.75 101.903C100.73 101.85 100.72 101.797 100.7 101.734C100.51 100.987 100.35 100.239 100.24 99.5127C100.22 99.439 100.22 99.3653 100.21 99.3021C100.1 98.502 100.03 97.7334 100.02 96.9754V96.9122C100.02 96.8385 100.02 96.7648 100.02 96.6806C100.02 96.5437 100.02 96.4279 100.02 96.3016C100.02 96.1963 100.02 96.091 100.02 95.9857C100.02 95.9331 100.02 95.8804 100.02 95.8383C100.04 95.5646 100.06 95.2908 100.08 95.0171C100.08 94.9539 100.1 94.8697 100.1 94.796C100.13 94.5539 100.16 94.3117 100.2 94.0906C100.22 93.9959 100.24 93.9116 100.26 93.8169V93.7958C100.3 93.6063 100.34 93.3958 100.38 93.2168C100.38 93.2168 100.38 93.1957 100.38 93.1852C100.41 93.0799 100.44 92.9851 100.47 92.8799C100.53 92.6903 100.57 92.4903 100.64 92.3008C100.67 92.1955 100.71 92.1008 100.75 91.985C100.81 91.8165 100.88 91.6375 100.95 91.4585V91.4375C100.98 91.3322 101.04 91.248 101.08 91.1427C101.16 90.9953 101.23 90.8163 101.31 90.6584C101.35 90.5952 101.38 90.5426 101.41 90.4794C101.41 90.4794 101.46 90.3952 101.48 90.3531C101.57 90.1951 101.65 90.0477 101.74 89.9109C101.81 89.7951 101.88 89.6898 101.96 89.5845C102.05 89.4582 102.14 89.3108 102.23 89.1844C102.32 89.0791 102.41 88.9949 102.49 88.8791C102.58 88.7738 102.66 88.6896 102.74 88.5948C102.77 88.5527 102.81 88.5106 102.85 88.479L104.83 86.3523L104.65 86.5629C104.59 86.626 104.53 86.6997 104.49 86.7629C104.45 86.7945 104.43 86.8261 104.39 86.8682C104.33 86.9524 104.26 87.0577 104.2 87.1524C104.16 87.1946 104.14 87.2261 104.12 87.2683C104.06 87.3314 104.02 87.4051 103.98 87.4788C103.95 87.5104 103.92 87.542 103.91 87.5841C103.85 87.6789 103.79 87.7736 103.73 87.8894C103.71 87.9316 103.68 87.9737 103.66 88.0263C103.64 88.0474 103.62 88.0789 103.61 88.1105C103.56 88.1737 103.52 88.2579 103.47 88.3316C103.43 88.4053 103.4 88.479 103.37 88.5633C103.35 88.6054 103.32 88.6475 103.3 88.7001C103.3 88.7317 103.28 88.7633 103.26 88.8054C103.26 88.8265 103.24 88.8265 103.26 88.837C103.2 88.9317 103.16 89.0265 103.12 89.1213C103.12 89.1423 103.1 89.1528 103.1 89.1844C103.07 89.2581 103.04 89.3423 103 89.4266C102.98 89.5003 102.94 89.574 102.92 89.6477C102.89 89.753 102.85 89.8477 102.81 89.9635C102.79 90.0267 102.78 90.0793 102.75 90.132C102.71 90.2688 102.67 90.4057 102.64 90.532C102.62 90.6373 102.59 90.7321 102.56 90.8374C102.56 90.8584 102.56 90.8689 102.54 90.89C102.54 90.9111 102.54 90.9321 102.54 90.9532C102.51 91.09 102.48 91.2269 102.45 91.3638C102.35 91.8165 102.28 92.2903 102.24 92.7746C102.2 93.1852 102.18 93.5958 102.17 94.0169C102.17 94.1643 102.17 94.2907 102.17 94.4381C102.17 95.1435 102.23 95.8594 102.31 96.5964C102.31 96.6385 102.33 96.6911 102.33 96.7438C102.45 97.6281 102.64 98.5336 102.88 99.4495C102.9 99.5548 102.93 99.639 102.96 99.7443C103.08 100.187 103.22 100.629 103.36 101.06C103.42 101.25 103.49 101.429 103.56 101.618C103.59 101.724 103.62 101.818 103.66 101.913C103.96 102.703 104.29 103.492 104.67 104.293C104.73 104.387 104.77 104.482 104.82 104.587C105.25 105.461 105.74 106.335 106.28 107.198C106.33 107.293 106.38 107.377 106.44 107.472C106.98 108.325 107.57 109.167 108.21 109.999C108.27 110.073 108.32 110.146 108.38 110.231C108.71 110.641 109.05 111.052 109.39 111.452C109.76 111.883 110.13 112.294 110.51 112.694L110.69 112.884C111.42 113.652 112.18 114.379 112.95 115.053C113.03 115.126 113.11 115.2 113.2 115.263C114 115.958 114.81 116.59 115.64 117.179C115.72 117.242 115.8 117.295 115.89 117.348C116.63 117.864 117.38 118.337 118.13 118.769C118.22 118.811 118.31 118.864 118.39 118.906C119.13 119.316 119.87 119.685 120.61 120.011C120.71 120.053 120.8 120.096 120.91 120.138C121.83 120.538 122.76 120.854 123.66 121.117C123.78 121.148 123.9 121.18 124.01 121.212C125.03 121.485 126.04 121.664 127.02 121.749C127.16 121.77 127.3 121.78 127.44 121.791C128.56 121.854 129.64 121.812 130.67 121.643C130.83 121.622 131 121.58 131.16 121.559C132.27 121.327 133.31 120.938 134.26 120.39C134.4 120.317 134.53 120.243 134.65 120.159C134.92 119.98 135.19 119.79 135.45 119.59C135.51 119.527 135.57 119.485 135.63 119.432C135.93 119.18 136.21 118.916 136.47 118.632L136.48 118.643Z" fill="#F8AF01"/>
<path d="M103.3 88.7212C103.3 88.7212 103.28 88.7844 103.26 88.8265C103.26 88.8475 103.24 88.8475 103.26 88.8581C103.2 88.9528 103.16 89.0476 103.12 89.1423C103.12 89.1634 103.1 89.1739 103.1 89.2055C102.39 89.9425 101.68 90.69 100.98 91.4375C101.01 91.3322 101.07 91.248 101.11 91.1427C101.19 90.9953 101.26 90.8163 101.34 90.6584C101.38 90.5952 101.41 90.5426 101.44 90.4794C102.03 89.8582 102.65 89.2792 103.3 88.7212Z" fill="#FFDF38"/>
<path d="M102.54 90.9006C102.54 90.9006 102.54 90.9427 102.54 90.9638C102.51 91.1007 102.48 91.2375 102.45 91.3744C102.39 91.4376 102.33 91.5007 102.27 91.5639C101.9 91.9745 101.52 92.3641 101.15 92.7747C100.85 93.1011 100.56 93.438 100.27 93.7854C100.31 93.5959 100.35 93.3853 100.39 93.2063H100.38C100.56 92.9958 100.73 92.7957 100.9 92.5852C101.27 92.164 101.65 91.7429 102.06 91.3428C102.21 91.1954 102.37 91.048 102.53 90.9006H102.54Z" fill="#FFDF38"/>
<path d="M102.16 94.0278C102.16 94.1752 102.16 94.3016 102.16 94.449C101.79 94.8596 101.4 95.2386 101.02 95.6281C100.68 95.9756 100.35 96.323 100 96.6494C100 96.523 100 96.4072 100 96.2809C100.27 95.9756 100.55 95.6808 100.84 95.386C101.27 94.9333 101.71 94.4595 102.17 94.0278H102.16Z" fill="#FFDF38"/>
<path d="M102.31 96.7545C101.63 97.681 100.93 98.597 100.22 99.513C100.2 99.4393 100.2 99.3656 100.19 99.3024C100.88 98.397 101.58 97.5021 102.29 96.6177C102.29 96.6598 102.31 96.7124 102.31 96.7651V96.7545Z" fill="#FFDF38"/>
<path d="M102.94 99.7552C102.71 99.9974 102.47 100.229 102.23 100.461C101.88 100.808 101.54 101.156 101.19 101.492C101.04 101.629 100.88 101.766 100.73 101.903C100.71 101.85 100.7 101.798 100.68 101.735C100.8 101.587 100.93 101.45 101.07 101.303C101.39 100.955 101.73 100.619 102.07 100.271C102.33 99.9974 102.59 99.7342 102.87 99.4604C102.89 99.5657 102.92 99.65 102.95 99.7552H102.94Z" fill="#FFDF38"/>
<path d="M103.64 101.924C103.25 102.377 102.83 102.808 102.43 103.24C102.12 103.566 101.8 103.903 101.49 104.24C101.46 104.167 101.43 104.093 101.4 104.009C101.68 103.682 101.97 103.377 102.25 103.051C102.68 102.577 103.09 102.082 103.54 101.619C103.57 101.724 103.6 101.819 103.64 101.913V101.924Z" fill="#FFDF38"/>
<path d="M104.81 104.598C104.71 104.693 104.61 104.788 104.51 104.893C104.25 105.167 103.99 105.441 103.73 105.735C103.37 106.146 103.02 106.557 102.69 106.988C102.66 106.925 102.63 106.872 102.59 106.809C102.88 106.378 103.18 105.956 103.51 105.556C103.77 105.23 104.05 104.925 104.34 104.619C104.44 104.514 104.54 104.398 104.65 104.293C104.71 104.388 104.75 104.482 104.8 104.588L104.81 104.598Z" fill="#FFDF38"/>
<path d="M106.43 107.483C106.16 107.767 105.88 108.062 105.62 108.346C105.16 108.82 104.7 109.294 104.25 109.768C104.21 109.704 104.16 109.62 104.11 109.557C104.54 109.083 104.98 108.61 105.41 108.136C105.69 107.83 105.98 107.515 106.26 107.209C106.31 107.304 106.36 107.388 106.42 107.483H106.43Z" fill="#FFDF38"/>
<path d="M108.37 110.241C108.37 110.241 108.31 110.315 108.27 110.346C108.14 110.494 108.01 110.641 107.87 110.789C107.58 111.073 107.3 111.368 107.01 111.652C106.73 111.936 106.46 112.21 106.17 112.494C106.11 112.421 106.06 112.347 106 112.273C106.26 111.989 106.53 111.715 106.8 111.431C107.09 111.126 107.38 110.82 107.68 110.515C107.82 110.368 107.96 110.241 108.11 110.104C108.14 110.073 108.18 110.041 108.21 109.999C108.27 110.073 108.32 110.146 108.38 110.231L108.37 110.241Z" fill="#FFDF38"/>
<path d="M110.69 112.905C110.51 113.094 110.32 113.252 110.14 113.421C109.83 113.716 109.53 114.031 109.24 114.347C108.99 114.632 108.75 114.916 108.53 115.2L108.36 115.021C108.58 114.726 108.8 114.442 109.04 114.168C109.33 113.831 109.64 113.505 109.97 113.2C110.14 113.042 110.32 112.863 110.51 112.705L110.69 112.894V112.905Z" fill="#FFDF38"/>
<path d="M113.2 115.274C112.91 115.6 112.61 115.926 112.32 116.242C111.9 116.695 111.48 117.158 111.06 117.6C111 117.548 110.93 117.495 110.87 117.442C111.27 116.948 111.68 116.474 112.1 116.011C112.38 115.684 112.66 115.379 112.95 115.052C113.03 115.126 113.11 115.2 113.2 115.263V115.274Z" fill="#FFDF38"/>
<path d="M115.89 117.359C115.62 117.643 115.35 117.917 115.09 118.211C114.66 118.706 114.25 119.222 113.86 119.749C113.8 119.717 113.73 119.675 113.68 119.633C114.05 119.075 114.45 118.538 114.88 118.032C115.12 117.738 115.38 117.453 115.64 117.19C115.72 117.253 115.8 117.306 115.89 117.359Z" fill="#FFDF38"/>
<path d="M118.4 118.917C118.34 119.022 118.26 119.127 118.18 119.232C117.94 119.538 117.69 119.854 117.45 120.159C117.13 120.57 116.82 120.959 116.49 121.359C116.42 121.328 116.35 121.285 116.27 121.243C116.58 120.822 116.88 120.401 117.19 120.001C117.44 119.675 117.68 119.348 117.93 119.022C117.99 118.938 118.06 118.864 118.13 118.79C118.22 118.832 118.31 118.885 118.39 118.927L118.4 118.917Z" fill="#FFDF38"/>
<path d="M120.91 120.149C120.83 120.254 120.75 120.37 120.67 120.475C120.4 120.812 120.13 121.138 119.87 121.465C119.57 121.833 119.28 122.191 118.97 122.56C118.89 122.528 118.82 122.496 118.74 122.454C119.04 122.044 119.34 121.644 119.66 121.244C119.93 120.896 120.2 120.538 120.47 120.201C120.52 120.138 120.57 120.085 120.62 120.022C120.72 120.064 120.81 120.106 120.92 120.149H120.91Z" fill="#FFDF38"/>
<path d="M124.02 121.222C123.97 121.285 123.92 121.349 123.86 121.412C123.59 121.759 123.31 122.096 123.04 122.454C122.75 122.833 122.46 123.212 122.18 123.602C122.09 123.581 122 123.559 121.92 123.538C122.21 123.096 122.5 122.665 122.8 122.254C123.07 121.885 123.34 121.517 123.63 121.17C123.63 121.149 123.65 121.148 123.67 121.127C123.79 121.159 123.91 121.191 124.02 121.222Z" fill="#FFDF38"/>
<path d="M127.45 121.802C127.16 122.128 126.88 122.433 126.59 122.76C126.18 123.212 125.76 123.665 125.35 124.107C125.27 124.107 125.18 124.107 125.09 124.086C125.52 123.56 125.94 123.044 126.38 122.528C126.6 122.265 126.82 122.002 127.04 121.749C127.18 121.77 127.32 121.781 127.46 121.791L127.45 121.802Z" fill="#FFDF38"/>
<path d="M131.17 121.58C131.06 121.707 130.95 121.822 130.85 121.949C130.34 122.559 129.83 123.17 129.33 123.812C129.2 123.844 129.08 123.875 128.95 123.897C129.5 123.16 130.05 122.433 130.63 121.728C130.65 121.707 130.66 121.686 130.68 121.665C130.84 121.643 131.01 121.601 131.17 121.58Z" fill="#FFDF38"/>
<path d="M134.65 120.17C134.31 120.665 133.98 121.149 133.63 121.633C133.58 121.675 133.53 121.717 133.49 121.759C133.43 121.812 133.37 121.854 133.31 121.907C133.31 121.907 133.24 121.97 133.21 121.991C133.56 121.454 133.92 120.938 134.28 120.412C134.42 120.338 134.55 120.264 134.67 120.18L134.65 120.17Z" fill="#FFDF38"/>
<path d="M238.216 242.169C237.456 241.516 236.646 240.895 235.816 240.316C231.286 237.21 225.606 235.22 218.226 236.473C210.756 237.747 203.006 241.285 198.176 246.033C195.486 248.686 193.956 252.171 193.026 255.182C192.606 256.561 192.486 257.909 192.526 259.225C192.486 259.088 192.456 258.951 192.426 258.814C192.366 258.551 192.316 258.277 192.276 258.014C192.266 257.919 192.246 257.825 192.236 257.74C191.076 248.718 200.606 238.926 213.566 235.747C213.666 235.726 213.766 235.694 213.876 235.673C213.976 235.652 214.066 235.631 214.166 235.61C214.316 235.578 214.386 235.557 214.456 235.547C214.596 235.515 214.676 235.494 214.746 235.484C214.906 235.452 214.986 235.431 215.076 235.42C215.386 235.357 215.686 235.305 215.986 235.252C217.596 234.968 219.156 234.81 220.666 234.768C220.976 234.768 221.246 234.757 221.526 234.747C221.636 234.747 221.706 234.747 221.786 234.747C221.936 234.747 221.996 234.747 222.056 234.747C222.196 234.747 222.256 234.747 222.306 234.747C222.466 234.747 222.516 234.747 222.576 234.747C222.766 234.747 222.836 234.747 222.906 234.757C222.946 234.757 222.996 234.757 223.036 234.757C223.076 234.757 223.116 234.757 223.156 234.757C223.206 234.757 223.246 234.757 223.296 234.757C223.456 234.757 223.516 234.768 223.576 234.778C230.266 235.22 235.676 237.905 238.236 242.159L238.216 242.169Z" fill="#EFA001"/>
<path d="M239.726 246.496C239.716 246.412 239.706 246.317 239.686 246.233C239.456 244.738 238.936 243.369 238.186 242.127C238.186 242.148 238.206 242.158 238.216 242.179C237.456 241.527 236.646 240.905 235.816 240.326C234.966 239.747 234.076 239.2 233.146 238.705C233.066 238.663 232.986 238.621 232.916 238.579C231.896 238.052 230.826 237.6 229.696 237.221C229.606 237.189 229.526 237.168 229.436 237.136C228.216 236.747 226.916 236.452 225.556 236.273C225.456 236.262 225.356 236.252 225.266 236.241C225.066 236.22 224.876 236.199 224.676 236.178C224.576 236.178 224.476 236.157 224.376 236.157C223.776 236.115 223.156 236.094 222.526 236.094C221.166 236.094 219.736 236.22 218.236 236.473C218.116 236.494 218.006 236.515 217.886 236.536C213.916 237.252 209.876 238.6 206.256 240.421C205.406 240.853 204.576 241.306 203.776 241.79C203.676 241.853 203.576 241.906 203.476 241.969C203.176 242.148 202.886 242.337 202.596 242.527C202.406 242.653 202.216 242.779 202.026 242.906C201.566 243.222 201.126 243.538 200.696 243.864C200.596 243.938 200.496 244.022 200.386 244.096C199.946 244.443 199.526 244.79 199.126 245.148C198.966 245.296 198.806 245.433 198.646 245.58C198.486 245.727 198.336 245.875 198.186 246.022C198.016 246.191 197.856 246.359 197.696 246.528C197.536 246.696 197.386 246.875 197.236 247.054C197.086 247.233 196.936 247.412 196.796 247.591C196.656 247.77 196.516 247.959 196.386 248.149C196.256 248.338 196.126 248.528 195.996 248.717C195.896 248.875 195.796 249.023 195.696 249.181C195.616 249.318 195.526 249.444 195.446 249.581C195.386 249.676 195.336 249.781 195.276 249.876C195.056 250.265 194.846 250.665 194.646 251.055C194.356 251.644 194.096 252.223 193.866 252.813C193.866 252.834 193.846 252.855 193.846 252.866C193.536 253.645 193.266 254.424 193.046 255.161C192.966 255.413 192.896 255.677 192.846 255.929C192.816 256.056 192.796 256.172 192.766 256.298C192.706 256.603 192.656 256.909 192.626 257.203C192.626 257.288 192.606 257.372 192.596 257.456C192.576 257.667 192.566 257.867 192.556 258.077C192.556 258.203 192.546 258.33 192.546 258.456C192.546 258.688 192.546 258.909 192.546 259.13C194.686 267.279 205.696 271.469 218.106 268.532C231.236 265.436 240.926 255.55 239.756 246.464L239.726 246.496ZM221.766 256.498C221.856 256.351 221.956 255.866 222.036 255.729C222.976 254.013 223.636 252.213 223.456 251.034C223.236 249.591 222.436 249.307 221.556 249.518C221.026 249.654 220.696 249.981 220.476 250.455C220.196 251.55 220.096 253.013 219.516 254.466C218.866 256.656 217.386 258.972 212.846 260.109C208.896 261.088 205.206 260.309 203.726 257.298L199.666 258.309L199.216 255.35L199.486 254.582L203.096 253.687C203.126 252.518 203.376 251.339 203.796 250.276C204.096 249.275 204.546 248.349 205.106 247.591L211.606 246.843L211.346 247.623C210.996 248.117 210.696 248.717 210.456 249.339C210.046 250.686 209.896 252.097 210.036 253.055C210.246 254.455 210.836 254.834 211.716 254.624C212.306 254.476 212.656 254.108 212.906 253.582C213.186 252.508 213.316 251.107 213.866 249.707C214.526 247.496 216.006 245.127 220.656 243.98C224.796 242.958 228.536 243.811 229.896 247.054L233.886 246.064L234.336 249.023L234.066 249.791L230.376 250.707C230.296 251.529 230.106 252.36 229.786 253.171C229.546 253.992 229.176 254.792 228.676 255.55L221.776 256.508L221.766 256.498Z" fill="#F8AF01"/>
<path d="M219.516 254.476C218.866 256.666 217.386 258.982 212.846 260.119C208.896 261.098 205.206 260.319 203.726 257.308L199.666 258.319L199.216 255.36L199.486 254.592L199.936 257.55L203.996 256.54C205.486 259.54 209.166 260.33 213.116 259.351C217.136 258.351 218.756 256.424 219.526 254.487L219.516 254.476Z" fill="#E28B00"/>
<path d="M211.326 247.622C210.976 248.117 210.676 248.717 210.436 249.338C210.716 248.433 211.106 247.548 211.596 246.843L211.336 247.622H211.326Z" fill="#E28B00"/>
<path d="M213.846 249.707C213.396 251.212 213.316 252.644 212.886 253.581C213.166 252.507 213.296 251.107 213.846 249.707Z" fill="#E28B00"/>
<path d="M234.046 249.781L230.356 250.697C230.376 250.454 230.396 250.223 230.396 249.981L234.306 249.012L234.036 249.781H234.046Z" fill="#E28B00"/>
<path d="M203.786 250.275C203.366 251.339 203.116 252.518 203.086 253.686L203.356 253.623C203.306 252.507 203.456 251.349 203.786 250.286V250.275Z" fill="#E28B00"/>
<path d="M220.476 250.465C220.696 249.591 221.036 248.948 221.826 248.759C222.706 248.538 223.506 248.822 223.726 250.275C223.916 251.549 223.096 253.97 222.036 255.739C222.976 254.023 223.636 252.223 223.456 251.044C223.236 249.601 222.436 249.317 221.556 249.527C221.026 249.664 220.696 249.991 220.476 250.465Z" fill="#E28B00"/>
<path d="M228.666 255.54L221.766 256.498C221.856 256.35 221.956 255.866 222.036 255.729L228.926 254.771C229.266 254.255 229.546 253.708 229.766 253.16C229.526 253.981 229.156 254.782 228.656 255.54H228.666Z" fill="#E28B00"/>
<path d="M203.076 253.687L199.466 254.582L199.916 257.54L203.976 256.529C204.026 256.624 204.076 256.719 204.126 256.803C204.156 256.845 204.176 256.887 204.206 256.94C204.736 257.814 205.466 258.477 206.346 258.93C206.436 258.972 206.526 259.024 206.616 259.056C206.796 259.14 206.986 259.214 207.176 259.288C207.226 259.309 207.276 259.319 207.326 259.34C207.426 259.372 207.526 259.404 207.626 259.435C207.676 259.446 207.726 259.467 207.776 259.477C209.346 259.877 211.196 259.825 213.106 259.351C213.986 259.13 214.746 258.867 215.416 258.572C215.986 258.319 216.486 258.035 216.916 257.74C217.066 257.635 217.196 257.54 217.336 257.435C217.796 257.066 218.176 256.677 218.496 256.277C218.586 256.161 218.676 256.045 218.756 255.929C218.796 255.866 218.836 255.813 218.876 255.75C219.146 255.34 219.356 254.908 219.516 254.487C220.096 253.034 220.196 251.57 220.476 250.475C220.696 249.602 221.036 248.959 221.826 248.77C222.706 248.549 223.506 248.833 223.726 250.286C223.916 251.56 223.096 253.981 222.036 255.75L228.926 254.792C229.266 254.276 229.546 253.729 229.766 253.181C230.086 252.371 230.276 251.539 230.356 250.718C230.376 250.475 230.396 250.244 230.396 250.002L234.306 249.033L233.856 246.075L229.866 247.064C228.496 243.822 224.766 242.969 220.626 243.99C215.976 245.138 214.506 247.506 213.836 249.717C213.386 251.223 213.306 252.655 212.876 253.592C212.636 254.118 212.276 254.487 211.686 254.634C210.806 254.855 210.216 254.466 210.006 253.065C209.856 252.097 210.006 250.697 210.426 249.349C210.706 248.444 211.096 247.559 211.586 246.854L205.086 247.601C204.526 248.37 204.076 249.296 203.776 250.286C203.446 251.36 203.296 252.507 203.346 253.623L203.076 253.687Z" fill="#FFDF38"/>
<path d="M244.806 245.296C244.796 245.19 244.776 245.075 244.756 244.969C243.866 239.116 239.356 234.757 232.916 232.577C232.936 232.577 232.966 232.577 232.996 232.588C232.796 232.514 232.586 232.462 232.376 232.388C232.466 232.42 232.556 232.451 232.636 232.472C232.186 232.325 231.726 232.188 231.266 232.062C231.436 232.104 231.616 232.146 231.776 232.198C231.556 232.135 231.336 232.083 231.106 232.019C230.966 231.988 230.836 231.946 230.696 231.914C230.526 231.872 230.356 231.83 230.186 231.788C230.306 231.819 230.426 231.851 230.546 231.883C230.096 231.777 229.626 231.683 229.156 231.588C229.306 231.619 229.466 231.64 229.616 231.672C229.326 231.609 229.046 231.556 228.756 231.504C228.646 231.482 228.526 231.472 228.406 231.451C228.376 231.451 228.336 231.451 228.306 231.44C228.326 231.44 228.336 231.44 228.356 231.44C227.886 231.367 227.406 231.304 226.916 231.251C227.196 231.282 227.476 231.304 227.746 231.346C227.356 231.293 226.956 231.24 226.556 231.198C226.436 231.188 226.316 231.167 226.196 231.156C226.106 231.156 226.016 231.135 225.916 231.125C225.976 231.125 226.036 231.135 226.086 231.146C225.566 231.093 225.036 231.072 224.496 231.051C224.846 231.072 225.196 231.082 225.536 231.103C225.056 231.072 224.566 231.04 224.076 231.019C223.966 231.019 223.856 231.019 223.746 231.009C223.616 231.009 223.496 231.009 223.366 231.009C223.436 231.009 223.506 231.009 223.586 231.009C220.356 230.946 216.926 231.293 213.396 232.135C197.466 235.904 185.696 247.896 187.116 258.919C187.126 259.025 187.146 259.14 187.176 259.351C187.176 259.414 187.196 259.467 187.206 259.53C187.206 259.583 187.226 259.635 187.236 259.688C187.236 259.73 187.246 259.762 187.256 259.804C187.266 259.867 187.276 259.93 187.306 260.046C187.356 260.277 187.406 260.509 187.476 260.741C189.146 266.942 195.056 271.237 202.956 272.68C207.606 273.533 212.956 273.396 218.516 272.08C234.446 268.311 246.206 256.319 244.786 245.285L244.806 245.296ZM218.076 268.563C205.496 271.543 194.316 267.195 192.416 258.814C192.356 258.561 192.306 258.309 192.266 258.045C192.246 257.94 192.236 257.835 192.226 257.73C191.066 248.707 200.596 238.915 213.556 235.736C213.656 235.715 213.756 235.683 213.866 235.662C213.966 235.641 214.056 235.62 214.226 235.578C214.296 235.557 214.376 235.546 214.516 235.515C214.586 235.494 214.666 235.483 214.806 235.452C214.896 235.431 214.976 235.42 215.076 235.399C215.376 235.336 215.666 235.283 215.986 235.231C217.576 234.957 219.136 234.799 220.676 234.746C220.956 234.746 221.226 234.736 221.546 234.736C221.616 234.736 221.686 234.736 221.846 234.736C221.906 234.736 221.966 234.736 222.116 234.736C222.176 234.736 222.226 234.736 222.386 234.736C222.446 234.736 222.496 234.736 222.666 234.736C222.736 234.736 222.816 234.736 223.376 234.767C223.436 234.767 223.496 234.767 223.586 234.778C232.166 235.336 238.686 239.631 239.686 246.222C239.696 246.306 239.716 246.401 239.726 246.485C240.896 255.571 231.206 265.457 218.076 268.553V268.563Z" fill="#FFDF38"/>
<path d="M232.996 232.588C228.356 231.746 221.976 231.788 216.426 233.094C200.496 236.863 188.616 248.423 190.036 259.456C190.046 259.541 190.056 259.635 190.076 259.72C190.976 265.594 196.576 270.48 202.976 272.68C195.076 271.238 189.166 266.942 187.496 260.741C187.436 260.509 187.376 260.278 187.326 260.046C187.296 259.92 187.286 259.867 187.276 259.804C187.276 259.762 187.266 259.73 187.256 259.688C187.246 259.635 187.236 259.583 187.226 259.53C187.216 259.467 187.206 259.414 187.196 259.351C187.166 259.141 187.146 259.035 187.136 258.92C185.716 247.886 197.486 235.894 213.416 232.135C220.676 230.419 227.536 230.714 233.006 232.578L232.996 232.588Z" fill="#FFD631"/>
<path d="M244.426 243.401L245.586 247.591C245.696 248.023 245.806 248.454 245.876 248.896C245.896 248.981 245.906 249.075 245.926 249.16C245.936 249.275 245.946 249.37 245.966 249.475C245.966 249.549 245.966 249.612 245.986 249.665C246.216 251.644 246.016 253.655 245.456 255.645C245.406 255.824 245.356 255.993 245.296 256.172C244.806 257.73 244.086 259.267 243.156 260.762C243.096 260.857 243.036 260.962 242.966 261.067C242.256 262.173 241.436 263.278 240.496 264.331C240.416 264.426 240.336 264.52 240.246 264.615C239.336 265.647 238.306 266.647 237.196 267.595C237.106 267.668 237.016 267.742 236.926 267.816C236.076 268.521 235.176 269.216 234.226 269.869C234.136 269.932 234.046 269.995 233.956 270.058C232.926 270.764 231.846 271.417 230.716 272.038C230.636 272.09 230.546 272.143 230.466 272.185C229.186 272.88 227.856 273.512 226.486 274.08C226.386 274.122 226.276 274.164 226.176 274.217C224.866 274.743 223.506 275.217 222.116 275.638L221.806 275.733C221.116 275.933 220.406 276.123 219.686 276.291C218.966 276.46 218.246 276.618 217.546 276.744C217.426 276.765 217.316 276.786 217.186 276.807C215.856 277.049 214.536 277.207 213.246 277.312C213.146 277.312 213.026 277.323 212.916 277.344C211.626 277.428 210.356 277.449 209.126 277.407C209.036 277.407 208.956 277.407 208.866 277.407C207.626 277.354 206.436 277.249 205.276 277.081C205.166 277.07 205.066 277.06 204.966 277.039C204.686 277.007 204.406 276.954 204.126 276.902C204.106 276.891 204.106 276.902 204.086 276.891C203.436 276.775 202.806 276.639 202.176 276.481C202.106 276.47 202.036 276.449 201.956 276.428C200.996 276.165 200.066 275.87 199.176 275.523C199.076 275.491 198.996 275.459 198.916 275.428C197.956 275.038 197.046 274.607 196.196 274.133L196.116 274.091C196.036 274.038 195.946 273.985 195.846 273.943C195.706 273.859 195.576 273.775 195.436 273.68C195.326 273.617 195.196 273.543 195.096 273.459C195.036 273.427 194.986 273.385 194.936 273.354C194.646 273.154 194.346 272.943 194.066 272.733C193.996 272.68 193.916 272.617 193.836 272.554C193.586 272.354 193.346 272.154 193.116 271.953C193.026 271.869 192.946 271.785 192.856 271.701C192.856 271.701 192.849 271.697 192.836 271.69C192.646 271.511 192.446 271.332 192.266 271.153C192.266 271.153 192.256 271.122 192.246 271.122C192.156 271.016 192.056 270.922 191.966 270.816C191.796 270.627 191.606 270.427 191.436 270.227C191.346 270.122 191.256 270.006 191.166 269.879C191.016 269.69 190.866 269.49 190.716 269.29L190.706 269.269C190.616 269.163 190.556 269.037 190.466 268.911C190.346 268.711 190.206 268.511 190.086 268.3C190.036 268.205 190.006 268.132 189.956 268.069C189.926 267.984 189.906 267.942 189.876 267.89C189.756 267.679 189.646 267.479 189.556 267.279C189.476 267.11 189.406 266.953 189.346 266.795C189.266 266.605 189.166 266.384 189.086 266.194C189.036 266.015 188.986 265.847 188.916 265.679C188.866 265.5 188.806 265.342 188.756 265.184C188.726 265.121 188.706 265.036 188.696 264.963L187.646 261.12L187.766 261.478C187.796 261.604 187.836 261.72 187.886 261.815C187.896 261.888 187.916 261.941 187.936 262.004C187.986 262.141 188.056 262.288 188.116 262.425C188.136 262.499 188.156 262.552 188.196 262.604C188.236 262.72 188.276 262.825 188.336 262.92C188.356 262.983 188.376 263.036 188.406 263.078C188.466 263.215 188.546 263.352 188.626 263.51C188.656 263.562 188.686 263.626 188.726 263.689C188.746 263.72 188.756 263.773 188.786 263.805C188.826 263.91 188.886 264.005 188.936 264.12C188.996 264.215 189.056 264.31 189.126 264.405C189.156 264.457 189.186 264.52 189.226 264.584V264.594C189.256 264.626 189.286 264.668 189.316 264.71C189.326 264.731 189.336 264.742 189.346 264.742C189.416 264.868 189.486 264.984 189.576 265.1C189.586 265.121 189.606 265.142 189.626 265.173C189.686 265.268 189.766 265.363 189.836 265.457C189.906 265.542 189.956 265.626 190.026 265.7C190.116 265.805 190.206 265.921 190.296 266.047C190.356 266.11 190.406 266.163 190.446 266.226C190.566 266.363 190.696 266.5 190.816 266.626C190.916 266.721 191.006 266.816 191.106 266.931C191.126 266.942 191.136 266.963 191.156 266.984C191.176 266.995 191.196 267.026 191.226 267.037C191.356 267.163 191.486 267.3 191.616 267.416C192.056 267.837 192.526 268.237 193.046 268.605C193.476 268.921 193.916 269.227 194.386 269.511C194.536 269.616 194.696 269.7 194.856 269.795C195.646 270.248 196.476 270.669 197.356 271.038C197.406 271.059 197.466 271.08 197.526 271.111C198.596 271.553 199.726 271.922 200.896 272.227C201.026 272.269 201.146 272.301 201.276 272.322C201.846 272.459 202.426 272.585 203.006 272.701C203.256 272.743 203.506 272.785 203.756 272.817C203.886 272.848 204.026 272.869 204.156 272.88C205.226 273.038 206.336 273.143 207.466 273.196C207.606 273.196 207.756 273.196 207.896 273.196C209.156 273.238 210.446 273.227 211.766 273.122C211.906 273.122 212.036 273.112 212.176 273.101C213.486 273.006 214.816 272.827 216.166 272.585C216.286 272.564 216.406 272.543 216.536 272.533C217.216 272.396 217.886 272.248 218.566 272.09C219.286 271.922 219.996 271.732 220.686 271.532L221.026 271.438C222.366 271.048 223.676 270.585 224.936 270.069C225.076 270.016 225.216 269.974 225.336 269.9C226.636 269.374 227.876 268.784 229.076 268.153C229.196 268.09 229.316 268.037 229.426 267.953C230.486 267.384 231.506 266.774 232.486 266.131C232.596 266.047 232.706 265.973 232.816 265.889C233.766 265.247 234.656 264.584 235.516 263.889C235.626 263.794 235.736 263.71 235.856 263.605C236.906 262.731 237.876 261.804 238.766 260.857C238.886 260.73 238.996 260.604 239.106 260.478C240.076 259.393 240.956 258.277 241.696 257.119C241.806 256.951 241.916 256.793 242.016 256.635C242.836 255.287 243.496 253.939 243.986 252.56C244.066 252.35 244.136 252.118 244.216 251.897C244.686 250.37 244.946 248.833 244.966 247.307C244.966 247.086 244.966 246.875 244.966 246.675C244.946 246.222 244.916 245.77 244.856 245.317C244.846 245.19 244.826 245.085 244.806 244.969C244.716 244.432 244.616 243.917 244.466 243.401H244.426Z" fill="#F8AF01"/>
<path d="M189.196 264.574C189.196 264.574 189.256 264.647 189.286 264.689C189.296 264.71 189.306 264.721 189.316 264.721C189.386 264.847 189.456 264.963 189.546 265.079C189.556 265.1 189.576 265.121 189.596 265.153C189.946 266.521 190.306 267.879 190.676 269.238C190.586 269.132 190.526 269.006 190.436 268.88C190.316 268.68 190.176 268.48 190.056 268.269C190.006 268.174 189.976 268.101 189.926 268.037C189.636 266.89 189.396 265.742 189.206 264.563L189.196 264.574Z" fill="#FFDF38"/>
<path d="M191.126 266.963C191.126 266.963 191.166 267.006 191.196 267.016C191.326 267.142 191.456 267.279 191.586 267.395C191.616 267.5 191.646 267.627 191.676 267.732C191.886 268.458 192.076 269.195 192.276 269.922C192.446 270.511 192.626 271.101 192.826 271.67C192.636 271.491 192.436 271.312 192.256 271.133C192.146 270.775 192.036 270.438 191.926 270.08C191.696 269.343 191.476 268.595 191.306 267.827C191.246 267.542 191.186 267.248 191.126 266.953V266.963Z" fill="#FFDF38"/>
<path d="M194.356 269.49C194.506 269.596 194.666 269.68 194.826 269.775C195.036 270.501 195.206 271.238 195.386 271.964C195.546 272.607 195.716 273.259 195.856 273.902C195.716 273.817 195.586 273.744 195.446 273.649C195.286 273.112 195.146 272.565 194.996 272.028C194.776 271.196 194.546 270.354 194.356 269.49Z" fill="#FFDF38"/>
<path d="M197.486 271.101C198.066 272.554 198.626 274.028 199.176 275.502C199.076 275.47 198.996 275.438 198.916 275.407C198.366 273.954 197.826 272.501 197.316 271.038C197.366 271.059 197.426 271.08 197.486 271.111V271.101Z" fill="#FFDF38"/>
<path d="M201.246 272.312C201.366 272.764 201.466 273.196 201.556 273.649C201.716 274.301 201.876 274.954 202.016 275.617C202.066 275.891 202.116 276.175 202.176 276.46C202.106 276.449 202.036 276.428 201.956 276.407C201.876 276.165 201.796 275.912 201.726 275.649C201.556 275.028 201.396 274.386 201.236 273.743C201.106 273.238 200.976 272.743 200.856 272.227C200.986 272.269 201.106 272.301 201.236 272.322L201.246 272.312Z" fill="#FFDF38"/>
<path d="M204.126 272.88C204.366 273.659 204.566 274.459 204.796 275.249C204.956 275.849 205.126 276.46 205.286 277.07C205.176 277.06 205.076 277.049 204.976 277.028C204.806 276.47 204.646 275.902 204.476 275.344C204.226 274.501 203.946 273.67 203.736 272.817C203.866 272.848 204.006 272.87 204.136 272.88H204.126Z" fill="#FFDF38"/>
<path d="M207.866 273.207C207.896 273.396 207.946 273.586 207.996 273.765C208.126 274.27 208.266 274.775 208.426 275.281C208.636 275.997 208.876 276.691 209.136 277.386C209.046 277.386 208.966 277.386 208.876 277.386C208.586 276.744 208.316 276.091 208.096 275.418C207.906 274.87 207.746 274.333 207.596 273.775C207.536 273.586 207.486 273.386 207.436 273.186C207.576 273.186 207.726 273.186 207.866 273.186V273.207Z" fill="#FFDF38"/>
<path d="M212.156 273.101C212.296 273.617 212.436 274.154 212.576 274.67C212.796 275.544 213.026 276.428 213.256 277.292C213.156 277.292 213.036 277.302 212.926 277.323C212.686 276.47 212.446 275.628 212.206 274.775C212.056 274.228 211.896 273.659 211.746 273.112C211.886 273.112 212.016 273.101 212.156 273.091V273.101Z" fill="#FFDF38"/>
<path d="M216.506 272.533C216.536 272.596 216.546 272.659 216.566 272.722C216.646 272.985 216.726 273.238 216.786 273.512C216.916 274.059 217.046 274.596 217.176 275.144C217.296 275.67 217.436 276.197 217.546 276.734C217.426 276.755 217.316 276.776 217.186 276.797C217.036 276.291 216.916 275.775 216.776 275.26C216.626 274.702 216.476 274.144 216.336 273.575C216.266 273.312 216.216 273.049 216.166 272.785C216.146 272.722 216.136 272.649 216.126 272.585C216.246 272.564 216.366 272.543 216.496 272.533H216.506Z" fill="#FFDF38"/>
<path d="M220.996 271.438C221.086 271.785 221.136 272.122 221.206 272.459C221.326 273.038 221.476 273.617 221.646 274.186C221.796 274.68 221.956 275.165 222.126 275.628L221.816 275.723C221.626 275.26 221.466 274.796 221.316 274.312C221.126 273.733 220.976 273.133 220.846 272.522C220.776 272.206 220.696 271.869 220.656 271.532L220.996 271.438Z" fill="#FFDF38"/>
<path d="M225.296 269.901C225.476 270.48 225.636 271.059 225.796 271.627C226.026 272.448 226.256 273.259 226.476 274.08C226.376 274.122 226.266 274.165 226.166 274.217C225.886 273.396 225.626 272.575 225.386 271.754C225.216 271.196 225.056 270.638 224.886 270.069C225.026 270.016 225.166 269.974 225.286 269.901H225.296Z" fill="#FFDF38"/>
<path d="M229.396 267.953C229.526 268.48 229.666 268.985 229.826 269.501C230.086 270.364 230.386 271.206 230.726 272.038C230.646 272.091 230.556 272.143 230.476 272.186C230.096 271.364 229.776 270.512 229.486 269.659C229.316 269.164 229.176 268.669 229.046 268.164C229.166 268.101 229.286 268.048 229.396 267.964V267.953Z" fill="#FFDF38"/>
<path d="M232.776 265.889C232.856 266.037 232.926 266.194 232.976 266.363C233.156 266.858 233.336 267.374 233.526 267.879C233.766 268.542 234.006 269.195 234.226 269.858C234.136 269.922 234.046 269.985 233.956 270.048C233.686 269.395 233.426 268.742 233.186 268.09C232.986 267.563 232.786 267.058 232.586 266.531C232.536 266.395 232.496 266.268 232.456 266.131C232.566 266.047 232.676 265.973 232.786 265.889H232.776Z" fill="#FFDF38"/>
<path d="M235.816 263.605C235.886 263.773 235.956 263.952 236.016 264.11C236.216 264.658 236.396 265.205 236.586 265.753C236.796 266.363 237.006 266.963 237.206 267.584C237.116 267.658 237.026 267.732 236.936 267.806C236.676 267.174 236.426 266.521 236.196 265.879C235.986 265.31 235.766 264.752 235.576 264.194C235.546 264.1 235.516 263.984 235.476 263.889C235.586 263.794 235.696 263.71 235.816 263.605Z" fill="#FFDF38"/>
<path d="M239.066 260.478C239.106 260.583 239.136 260.689 239.176 260.804C239.386 261.373 239.576 261.941 239.796 262.499C240.026 263.11 240.266 263.721 240.506 264.321C240.426 264.416 240.346 264.51 240.256 264.605C239.956 263.963 239.666 263.321 239.406 262.668C239.176 262.099 238.946 261.52 238.746 260.931C238.736 260.91 238.736 260.889 238.726 260.857C238.846 260.731 238.956 260.604 239.066 260.478Z" fill="#FFDF38"/>
<path d="M241.976 256.635C242.146 257.204 242.306 257.762 242.476 258.33C242.716 259.141 242.936 259.952 243.156 260.762C243.096 260.857 243.036 260.962 242.966 261.068C242.666 260.194 242.366 259.331 242.086 258.457C241.946 258.004 241.796 257.562 241.656 257.13C241.766 256.962 241.876 256.804 241.976 256.646V256.635Z" fill="#FFDF38"/>
<path d="M244.176 251.897C244.246 252.119 244.306 252.329 244.376 252.54C244.716 253.571 245.066 254.603 245.446 255.646C245.396 255.825 245.346 255.993 245.286 256.172C244.826 255.014 244.386 253.845 243.976 252.666C243.976 252.634 243.946 252.603 243.946 252.571C244.026 252.361 244.096 252.129 244.176 251.908V251.897Z" fill="#FFDF38"/>
<path d="M244.916 246.665C245.236 247.402 245.566 248.149 245.866 248.886C245.886 248.97 245.896 249.065 245.916 249.149C245.926 249.265 245.936 249.36 245.956 249.465C245.956 249.539 245.956 249.602 245.976 249.655C245.616 248.865 245.266 248.086 244.926 247.296C244.926 247.075 244.926 246.865 244.926 246.665H244.916Z" fill="#FFDF38"/>
</svg>
