<svg width="221" height="164" viewBox="0 0 221 164" fill="none" xmlns="http://www.w3.org/2000/svg">
<path d="M50.9039 85.2988L51.4325 84.9888L51.0228 84.5332C45.7862 78.7096 42.6825 70.9364 43.2117 62.5784C44.2587 46.0439 58.6458 33.3704 75.1803 34.4174C91.7148 35.4644 104.388 49.8515 103.341 66.386C102.812 74.7516 98.7526 82.0635 92.8232 87.1801L92.3593 87.5804L92.8446 87.9546C97.7588 91.7439 101.672 96.6773 104.243 102.325C106.744 107.821 107.902 113.83 107.622 119.857L93.3379 118.953C93.8858 106.15 84.2266 95.3609 71.3727 94.547C58.5188 93.733 47.5759 103.217 46.5044 115.987L32.2206 115.083C32.7032 109.069 34.6092 103.253 37.784 98.1168C41.0469 92.8384 45.551 88.4379 50.9039 85.2988ZM7.42624 21.9544C8.20472 9.66067 18.9763 0.172068 31.27 0.950549L199.371 11.5952C211.665 12.3737 221.153 23.1453 220.375 35.439L213.601 142.412C212.822 154.706 202.051 164.195 189.757 163.416L21.6562 152.771C9.36246 151.993 -0.12614 141.221 0.652342 128.928L7.42624 21.9544ZM198.466 25.8791L30.3655 15.2344C25.7652 14.9431 22.0014 18.2586 21.7101 22.8589L14.9362 129.832C14.6449 134.433 17.9604 138.196 22.5607 138.488L190.662 149.132C195.262 149.424 199.026 146.108 199.317 141.508L206.091 34.5345C206.382 29.9342 203.067 26.1704 198.466 25.8791ZM187.907 63.5684L127.778 59.7608L128.682 45.4769L188.812 49.2845L187.907 63.5684ZM89.0574 65.4815C89.6153 56.671 83.0863 49.2592 74.2758 48.7013C65.4653 48.1434 58.0535 54.6724 57.4956 63.4829C56.9377 72.2934 63.4667 79.7052 72.2772 80.2631C81.0877 80.821 88.4995 74.292 89.0574 65.4815ZM185.972 94.1322L125.842 90.3246L126.747 76.0407L186.876 79.8483L185.972 94.1322ZM161.114 123.244L123.907 120.888L124.811 106.604L162.018 108.961L161.114 123.244Z" fill="#991B1B" stroke="#991B1B"/>
</svg>
