<svg width="45" height="45" viewBox="0 0 45 45" fill="none" xmlns="http://www.w3.org/2000/svg">
<rect width="45" height="45" rx="15" fill="#E4EBEB"/>
<path d="M19 33H25C30 33 32 31 32 26V20C32 15 30 13 25 13H19C14 13 12 15 12 20V26C12 31 14 33 19 33Z" stroke="#006AFF" stroke-width="1.5" stroke-linecap="round" stroke-linejoin="round"/>
<path d="M18 30H26C28 30 29 29 29 27V19C29 17 28 16 26 16H18C16 16 15 17 15 19V27C15 29 16 30 18 30Z" stroke="#006AFF" stroke-width="1.5" stroke-linecap="round" stroke-linejoin="round"/>
<path d="M15 20.5H17.48C18.86 20.5 19.98 21.62 19.98 23C19.98 24.38 18.86 25.5 17.48 25.5H15" stroke="#006AFF" stroke-width="1.5" stroke-linecap="round" stroke-linejoin="round"/>
<path d="M29 20.9902H26" stroke="#3D4754" stroke-width="1.5" stroke-linecap="round" stroke-linejoin="round"/>
<path d="M29 25H26" stroke="#3D4754" stroke-width="1.5" stroke-linecap="round" stroke-linejoin="round"/>
<path d="M17.2002 23H17.3002" stroke="#3D4754" stroke-width="2" stroke-miterlimit="10" stroke-linecap="round" stroke-linejoin="round"/>
</svg>
