<svg width="101" height="288" viewBox="0 0 101 288" fill="none" xmlns="http://www.w3.org/2000/svg">
<path opacity="0.2" d="M100.093 49.1843V85.8001C100.093 137.291 56.5415 178.484 2.10159 178.484H-54.7578V84.6559H-2.73743C9.36032 84.6559 19.0385 75.5019 19.0385 64.0594V24.0109C19.0385 14.857 11.7798 5.70309 2.10159 4.55885C-0.317963 3.41461 -2.73749 3.41454 -5.15703 3.41454H-186.623C-192.672 3.41454 -198.721 5.70309 -203.56 10.2801C-204.77 11.4243 -205.98 12.5685 -207.189 14.857C-207.189 16.0012 -208.399 16.0013 -208.399 17.1455C-209.609 19.434 -209.609 21.7225 -209.609 25.1552V64.0594C-209.609 65.2037 -209.609 65.2037 -209.609 66.3479C-208.399 76.6461 -199.931 84.6559 -187.833 84.6559H-135.813V268.879C-135.813 283.754 -147.91 295.197 -163.638 295.197H-230.175C-245.902 295.197 -258 283.754 -258 268.879V-10.3163C-258 -13.7491 -258 -17.1818 -256.79 -21.7588C-250.741 -67.5285 -209.609 -103 -160.008 -103H2.10159C46.8633 -103 84.3663 -74.3939 96.4641 -35.4896C96.4641 -32.0569 97.6738 -28.6243 97.6738 -25.1915L100.093 22.8667C100.093 29.7322 100.093 36.5977 100.093 44.6074C100.093 44.6074 100.093 46.8958 100.093 49.1843Z" fill="#DAEDED" fill-opacity="0.6"/>
</svg>
