<svg width="74" height="209" viewBox="0 0 74 209" fill="none" xmlns="http://www.w3.org/2000/svg">
<path opacity="0.2" d="M358.093 152.184V188.8C358.093 240.291 314.541 281.484 260.102 281.484H203.242V187.656H255.263C267.36 187.656 277.038 178.502 277.038 167.059V127.011C277.038 117.857 269.78 108.703 260.102 107.559C257.682 106.415 255.263 106.415 252.843 106.415H71.3767C65.3279 106.415 59.279 108.703 54.4399 113.28C53.2301 114.424 52.0204 115.568 50.8106 117.857C50.8106 119.001 49.6008 119.001 49.6008 120.146C48.3911 122.434 48.391 124.722 48.391 128.155V167.059C48.391 168.204 48.391 168.204 48.391 169.348C49.6008 179.646 58.0692 187.656 70.167 187.656H122.187V371.879C122.187 386.754 110.09 398.197 94.3625 398.197H27.8249C12.0978 398.197 0 386.754 0 371.879V92.6837C0 89.2509 7.38208e-05 85.8182 1.20985 81.2412C7.25872 35.4715 48.3911 0 97.9918 0H260.102C304.863 0 342.366 28.6061 354.464 67.5104C354.464 70.9431 355.674 74.3757 355.674 77.8085L358.093 125.867C358.093 132.732 358.093 139.598 358.093 147.607C358.093 147.607 358.093 149.896 358.093 152.184Z" fill="#DAEDED" fill-opacity="0.6"/>
</svg>
