<svg width="21" height="26" viewBox="0 0 21 26" fill="none" xmlns="http://www.w3.org/2000/svg">
<path d="M20.3904 7.55083L18.1848 8.255L19.5523 10.0967C19.6207 10.189 19.6698 10.2938 19.6968 10.4048C19.7238 10.5159 19.7282 10.6311 19.7098 10.7439C19.6914 10.8566 19.6504 10.9647 19.5893 11.0618C19.5282 11.159 19.4482 11.2433 19.3538 11.31C19.1629 11.4428 18.9266 11.4968 18.6957 11.4604C18.4647 11.4239 18.2576 11.2999 18.1187 11.115L16.7623 9.27333L15.4058 11.115C15.267 11.2999 15.0598 11.4239 14.8288 11.4604C14.5979 11.4968 14.3616 11.4428 14.1707 11.31C14.0764 11.2433 13.9963 11.159 13.9352 11.0618C13.8741 10.9647 13.8332 10.8566 13.8147 10.7439C13.7963 10.6311 13.8007 10.5159 13.8277 10.4048C13.8548 10.2938 13.9039 10.189 13.9722 10.0967L15.3397 8.255L13.1341 7.55083C13.0232 7.51653 12.9204 7.46076 12.8318 7.38681C12.7431 7.31286 12.6705 7.22223 12.6181 7.12026C12.5656 7.01828 12.5345 6.90703 12.5266 6.79307C12.5186 6.6791 12.534 6.56472 12.5717 6.45667C12.6054 6.3481 12.661 6.24732 12.7352 6.16034C12.8095 6.07335 12.9008 6.00195 13.0037 5.95038C13.1066 5.89882 13.219 5.86815 13.3343 5.86021C13.4495 5.85227 13.5652 5.86722 13.6745 5.90417L15.88 6.60833V4.33333C15.88 4.10348 15.973 3.88304 16.1384 3.72051C16.3039 3.55798 16.5283 3.46667 16.7623 3.46667C16.9962 3.46667 17.2206 3.55798 17.3861 3.72051C17.5515 3.88304 17.6445 4.10348 17.6445 4.33333V6.60833L19.85 5.90417C19.9593 5.86722 20.075 5.85227 20.1902 5.86021C20.3055 5.86815 20.4179 5.89882 20.5209 5.95038C20.6238 6.00195 20.7151 6.07335 20.7893 6.16034C20.8635 6.24732 20.9191 6.3481 20.9528 6.45667C20.9906 6.56472 21.0059 6.6791 20.998 6.79307C20.99 6.90703 20.9589 7.01828 20.9065 7.12026C20.8541 7.22223 20.7814 7.31286 20.6928 7.38681C20.6041 7.46076 20.5013 7.51653 20.3904 7.55083ZM13.2334 19.5C13.2334 21.2239 12.5363 22.8772 11.2954 24.0962C10.0545 25.3152 8.37157 26 6.61672 26C4.86187 26 3.1789 25.3152 1.93803 24.0962C0.697167 22.8772 5.67873e-05 21.2239 5.67873e-05 19.5C-0.00382051 18.5852 0.190894 17.6801 0.571214 16.8451C0.951535 16.0101 1.50872 15.2643 2.20561 14.6575V4.33333C2.20561 3.18406 2.67035 2.08186 3.49759 1.2692C4.32484 0.456546 5.44682 0 6.61672 0C7.78662 0 8.9086 0.456546 9.73584 1.2692C10.5631 2.08186 11.0278 3.18406 11.0278 4.33333V14.6575C11.7247 15.2643 12.2819 16.0101 12.6622 16.8451C13.0425 17.6801 13.2373 18.5852 13.2334 19.5ZM3.97005 4.33333V10.4H9.26338V4.33333C9.26338 3.64377 8.98454 2.98245 8.48819 2.49486C7.99185 2.00726 7.31866 1.73333 6.61672 1.73333C5.91478 1.73333 5.24159 2.00726 4.74524 2.49486C4.2489 2.98245 3.97005 3.64377 3.97005 4.33333Z" fill="#1D4355"/>
</svg>
