<svg width="20" height="23" viewBox="0 0 20 23" fill="none" xmlns="http://www.w3.org/2000/svg">
<path d="M10.0034 23C9.81383 23 9.63203 22.9243 9.49799 22.7895C9.36395 22.6547 9.28865 22.4719 9.28865 22.2812V20.4226L8.3652 21.3526C8.23098 21.4874 8.04903 21.563 7.85936 21.5629C7.6697 21.5628 7.48785 21.4869 7.35383 21.3519C7.21981 21.2169 7.14459 21.034 7.14473 20.8432C7.14486 20.6525 7.22034 20.4696 7.35455 20.3349L9.28865 18.3899V12.7449L4.42838 15.5667L3.71935 18.2261C3.67007 18.4102 3.55005 18.5671 3.38572 18.6623C3.22139 18.7574 3.02619 18.7831 2.84307 18.7335C2.65996 18.6839 2.50392 18.5633 2.40929 18.398C2.31465 18.2327 2.28918 18.0365 2.33846 17.8523L2.67725 16.5844L1.07622 17.5131C0.912148 17.6069 0.717835 17.6316 0.535687 17.5819C0.35354 17.5322 0.198347 17.412 0.103974 17.2476C0.0096015 17.0833 -0.0162884 16.888 0.0319541 16.7045C0.0801966 16.521 0.198655 16.3642 0.361479 16.2682L1.96251 15.3396L0.698838 14.9989C0.608168 14.9743 0.523192 14.9321 0.448763 14.8745C0.374333 14.8169 0.311908 14.7452 0.26505 14.6634C0.218193 14.5815 0.187821 14.4912 0.175669 14.3976C0.163518 14.304 0.169824 14.2089 0.194228 14.1177C0.218632 14.0265 0.260656 13.9411 0.317901 13.8662C0.375145 13.7914 0.446489 13.7286 0.527859 13.6815C0.609229 13.6343 0.699031 13.6038 0.792139 13.5916C0.885246 13.5794 0.979835 13.5857 1.07051 13.6103L3.7122 14.3218L8.5739 11.5L3.71363 8.67819L1.06908 9.38975C0.887151 9.43535 0.694693 9.40723 0.533189 9.31147C0.371684 9.2157 0.254066 9.05995 0.205686 8.8778C0.157307 8.69564 0.182041 8.50166 0.274557 8.33767C0.367072 8.17368 0.519961 8.05282 0.700268 8.00113L1.96251 7.66044L0.361479 6.73181C0.279536 6.68496 0.207618 6.62228 0.149866 6.54736C0.0921133 6.47245 0.0496665 6.38679 0.0249694 6.29531C0.000272262 6.20383 -0.00618748 6.10835 0.00596219 6.01435C0.0181119 5.92035 0.048631 5.8297 0.0957624 5.74761C0.142894 5.66552 0.205706 5.59362 0.280584 5.53604C0.355462 5.47846 0.440926 5.43634 0.532055 5.41212C0.623185 5.38789 0.71818 5.38203 0.811571 5.39487C0.904963 5.40771 0.994907 5.439 1.07622 5.48694L2.67725 6.41556L2.33846 5.14625C2.31245 5.05451 2.30487 4.95847 2.31614 4.86375C2.32742 4.76903 2.35734 4.67751 2.40415 4.59453C2.45096 4.51155 2.51373 4.43878 2.5888 4.38045C2.66387 4.32212 2.74974 4.2794 2.84139 4.25478C2.93305 4.23017 3.02866 4.22414 3.12265 4.23707C3.21665 4.24999 3.30714 4.28161 3.38886 4.33006C3.47058 4.37852 3.54189 4.44285 3.59863 4.5193C3.65537 4.59576 3.69641 4.68281 3.71935 4.77537L4.42695 7.43331L9.28865 10.2551V4.61006L7.35455 2.66512C7.28809 2.59839 7.23536 2.51915 7.19936 2.43193C7.16336 2.3447 7.14479 2.2512 7.14473 2.15676C7.14466 2.06232 7.16309 1.96879 7.19897 1.88151C7.23485 1.79424 7.28747 1.71492 7.35383 1.64809C7.42019 1.58127 7.49899 1.52824 7.58573 1.49204C7.67247 1.45583 7.76545 1.43717 7.85936 1.4371C7.95328 1.43703 8.04629 1.45557 8.13308 1.49165C8.21987 1.52773 8.29874 1.58064 8.3652 1.64737L9.28865 2.57744V0.71875C9.28865 0.528126 9.36395 0.345309 9.49799 0.210517C9.63203 0.0757252 9.81383 0 10.0034 0C10.193 0 10.3748 0.0757252 10.5088 0.210517C10.6428 0.345309 10.7181 0.528126 10.7181 0.71875V2.57744L11.643 1.64737C11.7772 1.5126 11.9592 1.43697 12.1488 1.4371C12.3385 1.43724 12.5204 1.51313 12.6544 1.64809C12.7884 1.78306 12.8636 1.96603 12.8635 2.15676C12.8633 2.34749 12.7879 2.53035 12.6537 2.66512L10.7181 4.61006V10.2551L15.5784 7.43331L16.2874 4.77394C16.3367 4.58979 16.4567 4.43288 16.6211 4.33772C16.7854 4.24256 16.9806 4.21694 17.1637 4.2665C17.3468 4.31606 17.5029 4.43675 17.5975 4.602C17.6921 4.76725 17.7176 4.96354 17.6683 5.14769L17.331 6.41556L18.932 5.48694C19.0961 5.39313 19.2904 5.36839 19.4725 5.41812C19.6547 5.46785 19.8099 5.58801 19.9042 5.75238C19.9986 5.91674 20.0245 6.11198 19.9763 6.29547C19.928 6.47897 19.8096 6.63582 19.6467 6.73181L18.0457 7.66044L19.3079 8.00113C19.4911 8.05069 19.6471 8.17137 19.7417 8.33663C19.8364 8.50188 19.8618 8.69817 19.8126 8.88231C19.7633 9.06646 19.6433 9.22337 19.4789 9.31853C19.3146 9.41369 19.1194 9.43931 18.9363 9.38975L16.2946 8.67819L11.4329 11.5L16.2931 14.3218L18.9363 13.6103C19.1194 13.5609 19.3145 13.5867 19.4787 13.682C19.6429 13.7773 19.7627 13.9343 19.8118 14.1184C19.8609 14.3025 19.8353 14.4988 19.7405 14.6639C19.6457 14.829 19.4896 14.9495 19.3065 14.9989L18.0443 15.3396L19.6453 16.2682C19.8081 16.3642 19.9266 16.521 19.9748 16.7045C20.0231 16.888 19.9972 17.0833 19.9028 17.2476C19.8084 17.412 19.6532 17.5322 19.4711 17.5819C19.2889 17.6316 19.0946 17.6069 18.9306 17.5131L17.3295 16.5844L17.6669 17.8538C17.6929 17.9455 17.7005 18.0415 17.6892 18.1362C17.6779 18.231 17.648 18.3225 17.6012 18.4055C17.5544 18.4884 17.4916 18.5612 17.4165 18.6196C17.3415 18.6779 17.2556 18.7206 17.164 18.7452C17.0723 18.7698 16.9767 18.7759 16.8827 18.7629C16.7887 18.75 16.6982 18.7184 16.6165 18.6699C16.5348 18.6215 16.4635 18.5572 16.4067 18.4807C16.35 18.4042 16.3089 18.3172 16.286 18.2246L15.5784 15.5667L10.7181 12.7449V18.3899L12.6522 20.3349C12.7864 20.4696 12.8619 20.6525 12.8621 20.8432C12.8622 21.034 12.787 21.2169 12.653 21.3519C12.5189 21.4869 12.3371 21.5628 12.1474 21.5629C11.9577 21.563 11.7758 21.4874 11.6416 21.3526L10.7167 20.4226V22.2812C10.7167 22.4719 10.6414 22.6547 10.5074 22.7895C10.3733 22.9243 10.1915 23 10.002 23H10.0034Z" fill="#1D4355"/>
</svg>
