<svg width="19" height="23" viewBox="0 0 19 23" fill="none" xmlns="http://www.w3.org/2000/svg">
<path d="M9.5 0C6.22606 0 3.5625 2.57945 3.5625 5.75V9.2H2.375C1.74511 9.2 1.14102 9.44232 0.695621 9.87365C0.250222 10.305 0 10.89 0 11.5V20.7C0 21.31 0.250222 21.895 0.695621 22.3263C1.14102 22.7577 1.74511 23 2.375 23H16.625C17.2549 23 17.859 22.7577 18.3044 22.3263C18.7498 21.895 19 21.31 19 20.7V11.5C19 10.89 18.7498 10.305 18.3044 9.87365C17.859 9.44232 17.2549 9.2 16.625 9.2H15.4375V5.75C15.4375 2.57945 12.7739 0 9.5 0ZM5.9375 5.75C5.9375 3.8479 7.53587 2.3 9.5 2.3C11.4641 2.3 13.0625 3.8479 13.0625 5.75V9.2H5.9375V5.75ZM10.6875 18.0814V20.7H8.3125V18.0814C7.89733 17.8512 7.56397 17.5045 7.35636 17.0871C7.14875 16.6697 7.07665 16.2011 7.14956 15.7432C7.22247 15.2853 7.43698 14.8596 7.76478 14.5221C8.09259 14.1847 8.51831 13.9513 8.98581 13.8529C9.33306 13.7785 9.69311 13.7806 10.0394 13.859C10.3857 13.9373 10.7095 14.09 10.9867 14.3056C11.264 14.5213 11.4878 14.7945 11.6415 15.105C11.7952 15.4156 11.875 15.7556 11.875 16.1C11.8743 16.5022 11.7642 16.8971 11.5557 17.245C11.3472 17.5928 11.0478 17.8814 10.6875 18.0814Z" fill="#1D4355"/>
</svg>
